solid RSmoduleHolder_v2
facet normal 0.0 0.0 -1.0
  outer loop
    vertex 121.10000000000001 4.95 -30.0
    vertex 119.9 2.75 -30.0
    vertex 119.9 4.95 -30.0
  endloop
endfacet
facet normal 0.0 0.0 -1.0
  outer loop
    vertex 0.0 24.5 -30.0
    vertex 2.7 22.5 -30.0
    vertex 0.0 0.9999999999999999 -30.0
  endloop
endfacet
facet normal 0.0 0.0 -1.0
  outer loop
    vertex 2.7 22.5 -30.0
    vertex 0.0 24.5 -30.0
    vertex 122.60000000000002 24.499999999999996 -30.0
  endloop
endfacet
facet normal 0.0 0.0 -1.0
  outer loop
    vertex 0.0 0.9999999999999999 -30.0
    vertex 2.7 22.5 -30.0
    vertex 1.4999999999999993 7.0 -30.0
  endloop
endfacet
facet normal 0.0 0.0 -1.0
  outer loop
    vertex 1.4999999999999993 7.0 -30.0
    vertex 2.7 22.5 -30.0
    vertex 2.6999999999999993 7.0 -30.0
  endloop
endfacet
facet normal 0.0 0.0 -1.0
  outer loop
    vertex 2.7 22.5 -30.0
    vertex 122.60000000000002 24.499999999999996 -30.0
    vertex 18.300000000000004 22.5 -30.0
  endloop
endfacet
facet normal 0.0 0.0 -1.0
  outer loop
    vertex 18.300000000000004 22.5 -30.0
    vertex 122.60000000000002 24.499999999999996 -30.0
    vertex 23.020000000000007 22.500000000000004 -30.0
  endloop
endfacet
facet normal 0.0 0.0 -1.0
  outer loop
    vertex 18.300000000000004 22.5 -30.0
    vertex 23.020000000000007 22.500000000000004 -30.0
    vertex 18.300000000000004 7.0 -30.0
  endloop
endfacet
facet normal 0.0 0.0 -1.0
  outer loop
    vertex 18.300000000000004 7.0 -30.0
    vertex 23.020000000000007 22.500000000000004 -30.0
    vertex 19.5 7.0 -30.0
  endloop
endfacet
facet normal 0.0 0.0 -1.0
  outer loop
    vertex 19.5 7.0 -30.0
    vertex 23.020000000000007 22.500000000000004 -30.0
    vertex 19.5 4.95 -30.0
  endloop
endfacet
facet normal 0.0 0.0 -1.0
  outer loop
    vertex 19.5 4.95 -30.0
    vertex 23.020000000000007 22.500000000000004 -30.0
    vertex 21.820000000000004 6.999999999999997 -30.0
  endloop
endfacet
facet normal 0.0 0.0 -1.0
  outer loop
    vertex 23.020000000000007 22.500000000000004 -30.0
    vertex 122.60000000000002 24.499999999999996 -30.0
    vertex 38.620000000000005 22.500000000000004 -30.0
  endloop
endfacet
facet normal 0.0 0.0 -1.0
  outer loop
    vertex 38.620000000000005 22.500000000000004 -30.0
    vertex 122.60000000000002 24.499999999999996 -30.0
    vertex 43.34 22.500000000000004 -30.0
  endloop
endfacet
facet normal 0.0 0.0 -1.0
  outer loop
    vertex 38.620000000000005 22.500000000000004 -30.0
    vertex 43.34 22.500000000000004 -30.0
    vertex 38.620000000000005 6.999999999999997 -30.0
  endloop
endfacet
facet normal 0.0 0.0 -1.0
  outer loop
    vertex 38.620000000000005 6.999999999999997 -30.0
    vertex 43.34 22.500000000000004 -30.0
    vertex 39.82 6.999999999999997 -30.0
  endloop
endfacet
facet normal 0.0 0.0 -1.0
  outer loop
    vertex 39.82 6.999999999999997 -30.0
    vertex 43.34 22.500000000000004 -30.0
    vertex 39.82 4.95 -30.0
  endloop
endfacet
facet normal 0.0 0.0 -1.0
  outer loop
    vertex 39.82 4.95 -30.0
    vertex 43.34 22.500000000000004 -30.0
    vertex 42.14 7.0 -30.0
  endloop
endfacet
facet normal 0.0 0.0 -1.0
  outer loop
    vertex 43.34 22.500000000000004 -30.0
    vertex 122.60000000000002 24.499999999999996 -30.0
    vertex 58.94 22.500000000000004 -30.0
  endloop
endfacet
facet normal 0.0 0.0 -1.0
  outer loop
    vertex 58.94 22.500000000000004 -30.0
    vertex 122.60000000000002 24.499999999999996 -30.0
    vertex 63.660000000000004 22.500000000000007 -30.0
  endloop
endfacet
facet normal 0.0 0.0 -1.0
  outer loop
    vertex 58.94 22.500000000000004 -30.0
    vertex 63.660000000000004 22.500000000000007 -30.0
    vertex 58.94 7.0 -30.0
  endloop
endfacet
facet normal 0.0 0.0 -1.0
  outer loop
    vertex 58.94 7.0 -30.0
    vertex 63.660000000000004 22.500000000000007 -30.0
    vertex 60.14 7.0 -30.0
  endloop
endfacet
facet normal 0.0 0.0 -1.0
  outer loop
    vertex 60.14 7.0 -30.0
    vertex 63.660000000000004 22.500000000000007 -30.0
    vertex 60.14 4.95 -30.0
  endloop
endfacet
facet normal 0.0 0.0 -1.0
  outer loop
    vertex 60.14 4.95 -30.0
    vertex 63.660000000000004 22.500000000000007 -30.0
    vertex 62.459999999999994 7.0 -30.0
  endloop
endfacet
facet normal 0.0 0.0 -1.0
  outer loop
    vertex 63.660000000000004 22.500000000000007 -30.0
    vertex 122.60000000000002 24.499999999999996 -30.0
    vertex 79.26000000000002 22.500000000000007 -30.0
  endloop
endfacet
facet normal 0.0 0.0 -1.0
  outer loop
    vertex 79.26000000000002 22.500000000000007 -30.0
    vertex 122.60000000000002 24.499999999999996 -30.0
    vertex 83.97999999999999 22.500000000000004 -30.0
  endloop
endfacet
facet normal 0.0 0.0 -1.0
  outer loop
    vertex 79.26000000000002 22.500000000000007 -30.0
    vertex 83.97999999999999 22.500000000000004 -30.0
    vertex 79.26000000000002 7.0 -30.0
  endloop
endfacet
facet normal 0.0 0.0 -1.0
  outer loop
    vertex 79.26000000000002 7.0 -30.0
    vertex 83.97999999999999 22.500000000000004 -30.0
    vertex 80.46000000000001 7.0 -30.0
  endloop
endfacet
facet normal 0.0 0.0 -1.0
  outer loop
    vertex 80.46000000000001 7.0 -30.0
    vertex 83.97999999999999 22.500000000000004 -30.0
    vertex 80.46000000000001 4.95 -30.0
  endloop
endfacet
facet normal 0.0 0.0 -1.0
  outer loop
    vertex 80.46000000000001 4.95 -30.0
    vertex 83.97999999999999 22.500000000000004 -30.0
    vertex 82.77999999999999 7.0 -30.0
  endloop
endfacet
facet normal 0.0 0.0 -1.0
  outer loop
    vertex 83.97999999999999 22.500000000000004 -30.0
    vertex 122.60000000000002 24.499999999999996 -30.0
    vertex 99.58000000000001 22.500000000000004 -30.0
  endloop
endfacet
facet normal 0.0 0.0 -1.0
  outer loop
    vertex 99.58000000000001 22.500000000000004 -30.0
    vertex 122.60000000000002 24.499999999999996 -30.0
    vertex 104.29999999999998 22.500000000000004 -30.0
  endloop
endfacet
facet normal 0.0 0.0 -1.0
  outer loop
    vertex 99.58000000000001 22.500000000000004 -30.0
    vertex 104.29999999999998 22.500000000000004 -30.0
    vertex 99.58000000000001 7.0 -30.0
  endloop
endfacet
facet normal 0.0 0.0 -1.0
  outer loop
    vertex 99.58000000000001 7.0 -30.0
    vertex 104.29999999999998 22.500000000000004 -30.0
    vertex 100.78 7.0 -30.0
  endloop
endfacet
facet normal 0.0 0.0 -1.0
  outer loop
    vertex 100.78 7.0 -30.0
    vertex 104.29999999999998 22.500000000000004 -30.0
    vertex 100.78 4.95 -30.0
  endloop
endfacet
facet normal 0.0 0.0 -1.0
  outer loop
    vertex 100.78 4.95 -30.0
    vertex 104.29999999999998 22.500000000000004 -30.0
    vertex 103.09999999999997 7.000000000000001 -30.0
  endloop
endfacet
facet normal 0.0 0.0 -1.0
  outer loop
    vertex 104.29999999999998 22.500000000000004 -30.0
    vertex 122.60000000000002 24.499999999999996 -30.0
    vertex 119.9 22.500000000000004 -30.0
  endloop
endfacet
facet normal 0.0 0.0 -1.0
  outer loop
    vertex 119.9 22.500000000000004 -30.0
    vertex 122.60000000000002 24.499999999999996 -30.0
    vertex 119.9 7.000000000000001 -30.0
  endloop
endfacet
facet normal 0.0 0.0 -1.0
  outer loop
    vertex 119.9 7.000000000000001 -30.0
    vertex 122.60000000000002 24.499999999999996 -30.0
    vertex 121.10000000000001 7.000000000000001 -30.0
  endloop
endfacet
facet normal 0.0 0.0 -1.0
  outer loop
    vertex 121.10000000000001 7.000000000000001 -30.0
    vertex 122.60000000000002 24.499999999999996 -30.0
    vertex 121.10000000000001 4.95 -30.0
  endloop
endfacet
facet normal 0.0 0.0 -1.0
  outer loop
    vertex 0.0 0.9999999999999999 -30.0
    vertex 2.7 2.75 -30.0
    vertex 122.60000000000002 0.9999999999999996 -30.0
  endloop
endfacet
facet normal 0.0 0.0 -1.0
  outer loop
    vertex 2.7 2.75 -30.0
    vertex 0.0 0.9999999999999999 -30.0
    vertex 1.4999999999999993 4.95 -30.0
  endloop
endfacet
facet normal 0.0 0.0 -1.0
  outer loop
    vertex 1.4999999999999993 4.95 -30.0
    vertex 0.0 0.9999999999999999 -30.0
    vertex 1.4999999999999993 7.0 -30.0
  endloop
endfacet
facet normal 0.0 0.0 -1.0
  outer loop
    vertex 2.7 2.75 -30.0
    vertex 1.4999999999999993 4.95 -30.0
    vertex 2.6999999999999993 4.95 -30.0
  endloop
endfacet
facet normal 0.0 0.0 -1.0
  outer loop
    vertex 122.60000000000002 0.9999999999999996 -30.0
    vertex 2.7 2.75 -30.0
    vertex 18.300000000000004 2.75 -30.0
  endloop
endfacet
facet normal 0.0 0.0 -1.0
  outer loop
    vertex 122.60000000000002 0.9999999999999996 -30.0
    vertex 18.300000000000004 2.75 -30.0
    vertex 23.020000000000007 2.75 -30.0
  endloop
endfacet
facet normal 0.0 0.0 -1.0
  outer loop
    vertex 23.020000000000007 2.75 -30.0
    vertex 18.300000000000004 2.75 -30.0
    vertex 19.5 4.95 -30.0
  endloop
endfacet
facet normal 0.0 0.0 -1.0
  outer loop
    vertex 23.020000000000007 2.75 -30.0
    vertex 19.5 4.95 -30.0
    vertex 21.820000000000004 4.95 -30.0
  endloop
endfacet
facet normal 0.0 0.0 -1.0
  outer loop
    vertex 21.820000000000004 4.95 -30.0
    vertex 19.5 4.95 -30.0
    vertex 21.820000000000004 6.999999999999997 -30.0
  endloop
endfacet
facet normal 0.0 0.0 -1.0
  outer loop
    vertex 23.020000000000007 2.75 -30.0
    vertex 21.820000000000004 4.95 -30.0
    vertex 23.020000000000007 4.95 -30.0
  endloop
endfacet
facet normal 0.0 0.0 -1.0
  outer loop
    vertex 122.60000000000002 0.9999999999999996 -30.0
    vertex 23.020000000000007 2.75 -30.0
    vertex 38.620000000000005 2.75 -30.0
  endloop
endfacet
facet normal 0.0 0.0 -1.0
  outer loop
    vertex 122.60000000000002 0.9999999999999996 -30.0
    vertex 38.620000000000005 2.75 -30.0
    vertex 43.34 2.75 -30.0
  endloop
endfacet
facet normal 0.0 0.0 -1.0
  outer loop
    vertex 43.34 2.75 -30.0
    vertex 38.620000000000005 2.75 -30.0
    vertex 39.82 4.95 -30.0
  endloop
endfacet
facet normal 0.0 0.0 -1.0
  outer loop
    vertex 43.34 2.75 -30.0
    vertex 39.82 4.95 -30.0
    vertex 42.14 4.95 -30.0
  endloop
endfacet
facet normal 0.0 0.0 -1.0
  outer loop
    vertex 42.14 4.95 -30.0
    vertex 39.82 4.95 -30.0
    vertex 42.14 7.0 -30.0
  endloop
endfacet
facet normal 0.0 0.0 -1.0
  outer loop
    vertex 43.34 2.75 -30.0
    vertex 42.14 4.95 -30.0
    vertex 43.34 4.95 -30.0
  endloop
endfacet
facet normal 0.0 0.0 -1.0
  outer loop
    vertex 122.60000000000002 0.9999999999999996 -30.0
    vertex 43.34 2.75 -30.0
    vertex 58.94 2.75 -30.0
  endloop
endfacet
facet normal 0.0 0.0 -1.0
  outer loop
    vertex 122.60000000000002 0.9999999999999996 -30.0
    vertex 58.94 2.75 -30.0
    vertex 63.660000000000004 2.75 -30.0
  endloop
endfacet
facet normal 0.0 0.0 -1.0
  outer loop
    vertex 63.660000000000004 2.75 -30.0
    vertex 58.94 2.75 -30.0
    vertex 60.14 4.95 -30.0
  endloop
endfacet
facet normal 0.0 0.0 -1.0
  outer loop
    vertex 63.660000000000004 2.75 -30.0
    vertex 60.14 4.95 -30.0
    vertex 62.459999999999994 4.95 -30.0
  endloop
endfacet
facet normal 0.0 0.0 -1.0
  outer loop
    vertex 62.459999999999994 4.95 -30.0
    vertex 60.14 4.95 -30.0
    vertex 62.459999999999994 7.0 -30.0
  endloop
endfacet
facet normal 0.0 0.0 -1.0
  outer loop
    vertex 63.660000000000004 2.75 -30.0
    vertex 62.459999999999994 4.95 -30.0
    vertex 63.660000000000004 4.95 -30.0
  endloop
endfacet
facet normal 0.0 0.0 -1.0
  outer loop
    vertex 122.60000000000002 0.9999999999999996 -30.0
    vertex 63.660000000000004 2.75 -30.0
    vertex 79.26000000000002 2.75 -30.0
  endloop
endfacet
facet normal 0.0 0.0 -1.0
  outer loop
    vertex 122.60000000000002 0.9999999999999996 -30.0
    vertex 79.26000000000002 2.75 -30.0
    vertex 83.97999999999999 2.75 -30.0
  endloop
endfacet
facet normal 0.0 0.0 -1.0
  outer loop
    vertex 83.97999999999999 2.75 -30.0
    vertex 79.26000000000002 2.75 -30.0
    vertex 80.46000000000001 4.95 -30.0
  endloop
endfacet
facet normal 0.0 0.0 -1.0
  outer loop
    vertex 83.97999999999999 2.75 -30.0
    vertex 80.46000000000001 4.95 -30.0
    vertex 82.77999999999999 4.95 -30.0
  endloop
endfacet
facet normal 0.0 0.0 -1.0
  outer loop
    vertex 82.77999999999999 4.95 -30.0
    vertex 80.46000000000001 4.95 -30.0
    vertex 82.77999999999999 7.0 -30.0
  endloop
endfacet
facet normal 0.0 0.0 -1.0
  outer loop
    vertex 83.97999999999999 2.75 -30.0
    vertex 82.77999999999999 4.95 -30.0
    vertex 83.97999999999999 4.95 -30.0
  endloop
endfacet
facet normal 0.0 0.0 -1.0
  outer loop
    vertex 122.60000000000002 0.9999999999999996 -30.0
    vertex 83.97999999999999 2.75 -30.0
    vertex 99.58000000000001 2.75 -30.0
  endloop
endfacet
facet normal 0.0 0.0 -1.0
  outer loop
    vertex 122.60000000000002 0.9999999999999996 -30.0
    vertex 99.58000000000001 2.75 -30.0
    vertex 104.29999999999998 2.75 -30.0
  endloop
endfacet
facet normal 0.0 0.0 -1.0
  outer loop
    vertex 104.29999999999998 2.75 -30.0
    vertex 99.58000000000001 2.75 -30.0
    vertex 100.78 4.95 -30.0
  endloop
endfacet
facet normal 0.0 0.0 -1.0
  outer loop
    vertex 104.29999999999998 2.75 -30.0
    vertex 100.78 4.95 -30.0
    vertex 103.09999999999997 4.95 -30.0
  endloop
endfacet
facet normal 0.0 0.0 -1.0
  outer loop
    vertex 103.09999999999997 4.95 -30.0
    vertex 100.78 4.95 -30.0
    vertex 103.09999999999997 7.000000000000001 -30.0
  endloop
endfacet
facet normal 0.0 0.0 -1.0
  outer loop
    vertex 104.29999999999998 2.75 -30.0
    vertex 103.09999999999997 4.95 -30.0
    vertex 104.29999999999998 4.95 -30.0
  endloop
endfacet
facet normal 0.0 0.0 -1.0
  outer loop
    vertex 122.60000000000002 0.9999999999999996 -30.0
    vertex 104.29999999999998 2.75 -30.0
    vertex 119.9 2.75 -30.0
  endloop
endfacet
facet normal 0.0 0.0 -1.0
  outer loop
    vertex 122.60000000000002 0.9999999999999996 -30.0
    vertex 119.9 2.75 -30.0
    vertex 121.10000000000001 4.95 -30.0
  endloop
endfacet
facet normal 0.0 0.0 -1.0
  outer loop
    vertex 122.60000000000002 0.9999999999999996 -30.0
    vertex 121.10000000000001 4.95 -30.0
    vertex 122.60000000000002 24.499999999999996 -30.0
  endloop
endfacet
facet normal 0.0 0.0 -1.0
  outer loop
    vertex 104.29999999999998 7.000000000000001 -30.0
    vertex 103.09999999999997 7.000000000000001 -30.0
    vertex 104.29999999999998 22.500000000000004 -30.0
  endloop
endfacet
facet normal 0.0 0.0 -1.0
  outer loop
    vertex 19.5 4.95 -30.0
    vertex 18.300000000000004 2.75 -30.0
    vertex 18.300000000000004 4.95 -30.0
  endloop
endfacet
facet normal 0.0 0.0 -1.0
  outer loop
    vertex 39.82 4.95 -30.0
    vertex 38.620000000000005 2.75 -30.0
    vertex 38.620000000000005 4.95 -30.0
  endloop
endfacet
facet normal 0.0 0.0 -1.0
  outer loop
    vertex 60.14 4.95 -30.0
    vertex 58.94 2.75 -30.0
    vertex 58.94 4.95 -30.0
  endloop
endfacet
facet normal 0.0 0.0 -1.0
  outer loop
    vertex 80.46000000000001 4.95 -30.0
    vertex 79.26000000000002 2.75 -30.0
    vertex 79.26000000000002 4.95 -30.0
  endloop
endfacet
facet normal 0.0 0.0 -1.0
  outer loop
    vertex 100.78 4.95 -30.0
    vertex 99.58000000000001 2.75 -30.0
    vertex 99.58000000000001 4.95 -30.0
  endloop
endfacet
facet normal 0.0 0.0 -1.0
  outer loop
    vertex 83.97999999999999 7.0 -30.0
    vertex 82.77999999999999 7.0 -30.0
    vertex 83.97999999999999 22.500000000000004 -30.0
  endloop
endfacet
facet normal 0.0 0.0 -1.0
  outer loop
    vertex 63.660000000000004 7.0 -30.0
    vertex 62.459999999999994 7.0 -30.0
    vertex 63.660000000000004 22.500000000000007 -30.0
  endloop
endfacet
facet normal 0.0 0.0 -1.0
  outer loop
    vertex 43.34 7.0 -30.0
    vertex 42.14 7.0 -30.0
    vertex 43.34 22.500000000000004 -30.0
  endloop
endfacet
facet normal 0.0 0.0 -1.0
  outer loop
    vertex 23.020000000000007 6.999999999999997 -30.0
    vertex 21.820000000000004 6.999999999999997 -30.0
    vertex 23.020000000000007 22.500000000000004 -30.0
  endloop
endfacet
facet normal -1.0 0.0 0.0
  outer loop
    vertex 0.0 24.5 -0.9999999999999999
    vertex 0.0 0.9999999999999999 -30.0
    vertex 0.0 0.9999999999999999 -0.9999999999999999
  endloop
endfacet
facet normal -1.0 0.0 0.0
  outer loop
    vertex 0.0 0.9999999999999999 -30.0
    vertex 0.0 24.5 -0.9999999999999999
    vertex 0.0 24.5 -30.0
  endloop
endfacet
facet normal 0.0 -1.0 0.0
  outer loop
    vertex 16.5 21.5 -0.9999999999999999
    vertex 4.500000000000002 21.5 -1.9999999999999998
    vertex 16.5 21.5 -1.9999999999999998
  endloop
endfacet
facet normal 0.0 -1.0 0.0
  outer loop
    vertex 4.500000000000002 21.5 -1.9999999999999998
    vertex 16.5 21.5 -0.9999999999999999
    vertex 4.500000000000002 21.5 -1.0000000000000002
  endloop
endfacet
facet normal -0.0 1.0 -0.0
  outer loop
    vertex 4.500000000000002 7.0 -1.0000000000000002
    vertex 16.5 7.0 -1.9999999999999998
    vertex 4.5 7.0 -1.9999999999999998
  endloop
endfacet
facet normal -0.0 1.0 -0.0
  outer loop
    vertex 16.5 7.0 -1.9999999999999998
    vertex 4.500000000000002 7.0 -1.0000000000000002
    vertex 16.5 7.0 -0.9999999999999999
  endloop
endfacet
facet normal 1.0 0.0 0.0
  outer loop
    vertex 1.4999999999999993 7.0 -30.0
    vertex 1.4999999999999993 4.95 -2.000000000000001
    vertex 1.4999999999999993 4.95 -30.0
  endloop
endfacet
facet normal 1.0 0.0 0.0
  outer loop
    vertex 1.4999999999999993 4.95 -2.000000000000001
    vertex 1.4999999999999993 7.0 -30.0
    vertex 1.4999999999999993 7.0 -1.9999999999999998
  endloop
endfacet
facet normal 1.0 -5.639932965095794e-17 -9.73305919138272e-50
  outer loop
    vertex 2.7 22.5 -30.0
    vertex 2.6999999999999993 7.0 -1.9999999999999998
    vertex 2.6999999999999993 7.0 -30.0
  endloop
endfacet
facet normal 1.0 -5.639932965095794e-17 -9.73305919138272e-50
  outer loop
    vertex 2.6999999999999993 7.0 -1.9999999999999998
    vertex 2.7 22.5 -30.0
    vertex 2.7 22.5 -1.9999999999999998
  endloop
endfacet
facet normal -4.0226864710148086e-17 -1.0 -0.0
  outer loop
    vertex 2.6999999999999993 7.0 -1.9999999999999998
    vertex 1.4999999999999993 7.0 -30.0
    vertex 2.6999999999999993 7.0 -30.0
  endloop
endfacet
facet normal -4.0226864710148086e-17 -1.0 -0.0
  outer loop
    vertex 1.4999999999999993 7.0 -30.0
    vertex 2.6999999999999993 7.0 -1.9999999999999998
    vertex 1.4999999999999993 7.0 -1.9999999999999998
  endloop
endfacet
facet normal -1.0 0.0 0.0
  outer loop
    vertex 18.300000000000004 22.5 -1.9999999999999998
    vertex 18.300000000000004 7.0 -30.0
    vertex 18.300000000000004 7.0 -1.9999999999999998
  endloop
endfacet
facet normal -1.0 0.0 0.0
  outer loop
    vertex 18.300000000000004 7.0 -30.0
    vertex 18.300000000000004 22.5 -1.9999999999999998
    vertex 18.300000000000004 22.5 -30.0
  endloop
endfacet
facet normal 0.0 -1.0 0.0
  outer loop
    vertex 19.5 7.0 -1.9999999999999998
    vertex 18.300000000000004 7.0 -30.0
    vertex 19.5 7.0 -30.0
  endloop
endfacet
facet normal 0.0 -1.0 0.0
  outer loop
    vertex 18.300000000000004 7.0 -30.0
    vertex 19.5 7.0 -1.9999999999999998
    vertex 18.300000000000004 7.0 -1.9999999999999998
  endloop
endfacet
facet normal -1.0 0.0 0.0
  outer loop
    vertex 19.5 7.0 -1.9999999999999998
    vertex 19.5 4.95 -30.0
    vertex 19.5 4.95 -2.000000000000001
  endloop
endfacet
facet normal -1.0 0.0 0.0
  outer loop
    vertex 19.5 4.95 -30.0
    vertex 19.5 7.0 -1.9999999999999998
    vertex 19.5 7.0 -30.0
  endloop
endfacet
facet normal 1.0 1.2042793150308425e-16 1.6785514777070815e-17
  outer loop
    vertex 2.6999999999999993 4.95 -30.0
    vertex 2.6999999999999993 2.75 -1.9999999999999998
    vertex 2.7 2.75 -30.0
  endloop
endfacet
facet normal 1.0 1.2042793150308425e-16 1.6785514777070815e-17
  outer loop
    vertex 2.6999999999999993 2.75 -1.9999999999999998
    vertex 2.6999999999999993 4.95 -30.0
    vertex 2.6999999999999993 4.95 -2.000000000000001
  endloop
endfacet
facet normal -1.036752383289668e-16 1.0 0.0
  outer loop
    vertex 1.4999999999999993 4.95 -2.000000000000001
    vertex 2.6999999999999993 4.95 -30.0
    vertex 1.4999999999999993 4.95 -30.0
  endloop
endfacet
facet normal -1.036752383289668e-16 1.0 0.0
  outer loop
    vertex 2.6999999999999993 4.95 -30.0
    vertex 1.4999999999999993 4.95 -2.000000000000001
    vertex 2.6999999999999993 4.95 -2.000000000000001
  endloop
endfacet
facet normal -1.0 0.0 0.0
  outer loop
    vertex 18.300000000000004 4.95 -2.000000000000001
    vertex 18.300000000000004 2.75 -30.0
    vertex 18.300000000000004 2.75 -1.9999999999999998
  endloop
endfacet
facet normal -1.0 0.0 0.0
  outer loop
    vertex 18.300000000000004 2.75 -30.0
    vertex 18.300000000000004 4.95 -2.000000000000001
    vertex 18.300000000000004 4.95 -30.0
  endloop
endfacet
facet normal 0.0 1.0 0.0
  outer loop
    vertex 18.300000000000004 4.95 -2.000000000000001
    vertex 19.5 4.95 -30.0
    vertex 18.300000000000004 4.95 -30.0
  endloop
endfacet
facet normal 0.0 1.0 0.0
  outer loop
    vertex 19.5 4.95 -30.0
    vertex 18.300000000000004 4.95 -2.000000000000001
    vertex 19.5 4.95 -2.000000000000001
  endloop
endfacet
facet normal 1.0 -2.819966482547897e-17 -1.762479051592436e-16
  outer loop
    vertex 4.500000000000002 21.5 -1.9999999999999998
    vertex 4.500000000000002 7.0 -1.0000000000000002
    vertex 4.5 7.0 -1.9999999999999998
  endloop
endfacet
facet normal 1.0 -2.819966482547897e-17 -1.762479051592436e-16
  outer loop
    vertex 4.500000000000002 7.0 -1.0000000000000002
    vertex 4.500000000000002 21.5 -1.9999999999999998
    vertex 4.500000000000002 21.5 -1.0000000000000002
  endloop
endfacet
facet normal -1.0 0.0 0.0
  outer loop
    vertex 16.5 21.5 -0.9999999999999999
    vertex 16.5 7.0 -1.9999999999999998
    vertex 16.5 7.0 -0.9999999999999999
  endloop
endfacet
facet normal -1.0 0.0 0.0
  outer loop
    vertex 16.5 7.0 -1.9999999999999998
    vertex 16.5 21.5 -0.9999999999999999
    vertex 16.5 21.5 -1.9999999999999998
  endloop
endfacet
facet normal 0.0 -1.0 0.0
  outer loop
    vertex 18.300000000000004 22.5 -1.9999999999999998
    vertex 2.7 22.5 -30.0
    vertex 18.300000000000004 22.5 -30.0
  endloop
endfacet
facet normal 0.0 -1.0 0.0
  outer loop
    vertex 2.7 22.5 -30.0
    vertex 18.300000000000004 22.5 -1.9999999999999998
    vertex 2.7 22.5 -1.9999999999999998
  endloop
endfacet
facet normal -6.869480156551288e-34 1.619189487287332e-17 -1.0
  outer loop
    vertex 2.7 22.5 -1.9999999999999998
    vertex 4.500000000000002 21.5 -1.9999999999999998
    vertex 4.5 7.0 -1.9999999999999998
  endloop
endfacet
facet normal -6.869480156551288e-34 1.619189487287332e-17 -1.0
  outer loop
    vertex 4.500000000000002 21.5 -1.9999999999999998
    vertex 2.7 22.5 -1.9999999999999998
    vertex 18.300000000000004 22.5 -1.9999999999999998
  endloop
endfacet
facet normal -6.869480156551288e-34 1.619189487287332e-17 -1.0
  outer loop
    vertex 4.500000000000002 21.5 -1.9999999999999998
    vertex 18.300000000000004 22.5 -1.9999999999999998
    vertex 16.5 21.5 -1.9999999999999998
  endloop
endfacet
facet normal -6.869480156551288e-34 1.619189487287332e-17 -1.0
  outer loop
    vertex 16.5 21.5 -1.9999999999999998
    vertex 18.300000000000004 22.5 -1.9999999999999998
    vertex 16.5 7.0 -1.9999999999999998
  endloop
endfacet
facet normal -6.869480156551288e-34 1.619189487287332e-17 -1.0
  outer loop
    vertex 19.5 7.0 -1.9999999999999998
    vertex 18.300000000000004 4.95 -2.000000000000001
    vertex 18.300000000000004 7.0 -1.9999999999999998
  endloop
endfacet
facet normal -6.869480156551288e-34 1.619189487287332e-17 -1.0
  outer loop
    vertex 18.300000000000004 4.95 -2.000000000000001
    vertex 19.5 7.0 -1.9999999999999998
    vertex 19.5 4.95 -2.000000000000001
  endloop
endfacet
facet normal -6.869480156551288e-34 1.619189487287332e-17 -1.0
  outer loop
    vertex 2.6999999999999993 7.0 -1.9999999999999998
    vertex 1.4999999999999993 4.95 -2.000000000000001
    vertex 1.4999999999999993 7.0 -1.9999999999999998
  endloop
endfacet
facet normal -6.869480156551288e-34 1.619189487287332e-17 -1.0
  outer loop
    vertex 1.4999999999999993 4.95 -2.000000000000001
    vertex 2.6999999999999993 7.0 -1.9999999999999998
    vertex 2.6999999999999993 4.95 -2.000000000000001
  endloop
endfacet
facet normal -6.869480156551288e-34 1.619189487287332e-17 -1.0
  outer loop
    vertex 2.6999999999999993 4.95 -2.000000000000001
    vertex 2.6999999999999993 7.0 -1.9999999999999998
    vertex 2.7 22.5 -1.9999999999999998
  endloop
endfacet
facet normal -6.869480156551288e-34 1.619189487287332e-17 -1.0
  outer loop
    vertex 2.6999999999999993 4.95 -2.000000000000001
    vertex 2.7 22.5 -1.9999999999999998
    vertex 2.6999999999999993 2.75 -1.9999999999999998
  endloop
endfacet
facet normal -6.869480156551288e-34 1.619189487287332e-17 -1.0
  outer loop
    vertex 2.6999999999999993 2.75 -1.9999999999999998
    vertex 2.7 22.5 -1.9999999999999998
    vertex 4.5 7.0 -1.9999999999999998
  endloop
endfacet
facet normal -6.869480156551288e-34 1.619189487287332e-17 -1.0
  outer loop
    vertex 2.6999999999999993 2.75 -1.9999999999999998
    vertex 4.5 7.0 -1.9999999999999998
    vertex 18.300000000000004 2.75 -1.9999999999999998
  endloop
endfacet
facet normal -6.869480156551288e-34 1.619189487287332e-17 -1.0
  outer loop
    vertex 18.300000000000004 2.75 -1.9999999999999998
    vertex 4.5 7.0 -1.9999999999999998
    vertex 16.5 7.0 -1.9999999999999998
  endloop
endfacet
facet normal -6.869480156551288e-34 1.619189487287332e-17 -1.0
  outer loop
    vertex 18.300000000000004 2.75 -1.9999999999999998
    vertex 16.5 7.0 -1.9999999999999998
    vertex 18.300000000000004 22.5 -1.9999999999999998
  endloop
endfacet
facet normal -6.869480156551288e-34 1.619189487287332e-17 -1.0
  outer loop
    vertex 18.300000000000004 2.75 -1.9999999999999998
    vertex 18.300000000000004 22.5 -1.9999999999999998
    vertex 18.300000000000004 7.0 -1.9999999999999998
  endloop
endfacet
facet normal -6.869480156551288e-34 1.619189487287332e-17 -1.0
  outer loop
    vertex 18.300000000000004 2.75 -1.9999999999999998
    vertex 18.300000000000004 7.0 -1.9999999999999998
    vertex 18.300000000000004 4.95 -2.000000000000001
  endloop
endfacet
facet normal -0.0 1.0 -0.0
  outer loop
    vertex 2.6999999999999993 2.75 -1.9999999999999998
    vertex 18.300000000000004 2.75 -30.0
    vertex 2.7 2.75 -30.0
  endloop
endfacet
facet normal -0.0 1.0 -0.0
  outer loop
    vertex 18.300000000000004 2.75 -30.0
    vertex 2.6999999999999993 2.75 -1.9999999999999998
    vertex 18.300000000000004 2.75 -1.9999999999999998
  endloop
endfacet
facet normal 0.0 0.0 -1.0
  outer loop
    vertex 18.300000000000004 2.75 -1.9999999999999998
    vertex 2.6999999999999993 1.9999999999999998 -1.9999999999999998
    vertex 2.6999999999999993 2.75 -1.9999999999999998
  endloop
endfacet
facet normal 0.0 0.0 -1.0
  outer loop
    vertex 2.6999999999999993 1.9999999999999998 -1.9999999999999998
    vertex 18.300000000000004 2.75 -1.9999999999999998
    vertex 18.300000000000004 1.9999999999999998 -1.9999999999999998
  endloop
endfacet
facet normal -1.0 0.0 0.0
  outer loop
    vertex 39.82 6.999999999999997 -2.0000000000000018
    vertex 39.82 4.95 -30.0
    vertex 39.82 4.95 -2.0000000000000018
  endloop
endfacet
facet normal -1.0 0.0 0.0
  outer loop
    vertex 39.82 4.95 -30.0
    vertex 39.82 6.999999999999997 -2.0000000000000018
    vertex 39.82 6.999999999999997 -30.0
  endloop
endfacet
facet normal 0.0 -1.0 0.0
  outer loop
    vertex 39.82 6.999999999999997 -2.0000000000000018
    vertex 38.620000000000005 6.999999999999997 -30.0
    vertex 39.82 6.999999999999997 -30.0
  endloop
endfacet
facet normal 0.0 -1.0 0.0
  outer loop
    vertex 38.620000000000005 6.999999999999997 -30.0
    vertex 39.82 6.999999999999997 -2.0000000000000018
    vertex 38.620000000000005 6.999999999999997 -2.0000000000000018
  endloop
endfacet
facet normal 1.0 -0.0 -0.0
  outer loop
    vertex 23.020000000000007 4.95 -30.0
    vertex 23.020000000000007 2.75 -2.0000000000000018
    vertex 23.020000000000007 2.75 -30.0
  endloop
endfacet
facet normal 1.0 -0.0 -0.0
  outer loop
    vertex 23.020000000000007 2.75 -2.0000000000000018
    vertex 23.020000000000007 4.95 -30.0
    vertex 23.020000000000007 4.95 -2.0000000000000018
  endloop
endfacet
facet normal 1.0 -0.0 -0.0
  outer loop
    vertex 23.020000000000007 22.500000000000004 -30.0
    vertex 23.020000000000007 6.999999999999997 -2.0000000000000018
    vertex 23.020000000000007 6.999999999999997 -30.0
  endloop
endfacet
facet normal 1.0 -0.0 -0.0
  outer loop
    vertex 23.020000000000007 6.999999999999997 -2.0000000000000018
    vertex 23.020000000000007 22.500000000000004 -30.0
    vertex 23.020000000000007 22.500000000000004 -2.0000000000000018
  endloop
endfacet
facet normal -1.0 0.0 0.0
  outer loop
    vertex 38.620000000000005 22.500000000000004 -2.0000000000000018
    vertex 38.620000000000005 6.999999999999997 -30.0
    vertex 38.620000000000005 6.999999999999997 -2.0000000000000018
  endloop
endfacet
facet normal -1.0 0.0 0.0
  outer loop
    vertex 38.620000000000005 6.999999999999997 -30.0
    vertex 38.620000000000005 22.500000000000004 -2.0000000000000018
    vertex 38.620000000000005 22.500000000000004 -30.0
  endloop
endfacet
facet normal 1.0 0.0 0.0
  outer loop
    vertex 21.820000000000004 6.999999999999997 -30.0
    vertex 21.820000000000004 4.95 -2.0000000000000018
    vertex 21.820000000000004 4.95 -30.0
  endloop
endfacet
facet normal 1.0 0.0 0.0
  outer loop
    vertex 21.820000000000004 4.95 -2.0000000000000018
    vertex 21.820000000000004 6.999999999999997 -30.0
    vertex 21.820000000000004 6.999999999999997 -2.0000000000000018
  endloop
endfacet
facet normal 0.0 -1.0 0.0
  outer loop
    vertex 23.020000000000007 6.999999999999997 -2.0000000000000018
    vertex 21.820000000000004 6.999999999999997 -30.0
    vertex 23.020000000000007 6.999999999999997 -30.0
  endloop
endfacet
facet normal 0.0 -1.0 0.0
  outer loop
    vertex 21.820000000000004 6.999999999999997 -30.0
    vertex 23.020000000000007 6.999999999999997 -2.0000000000000018
    vertex 21.820000000000004 6.999999999999997 -2.0000000000000018
  endloop
endfacet
facet normal 0.0 -1.0 0.0
  outer loop
    vertex 36.82000000000001 21.5 -0.9999999999999981
    vertex 24.820000000000007 21.5 -2.0000000000000018
    vertex 36.82000000000001 21.5 -2.0000000000000018
  endloop
endfacet
facet normal 0.0 -1.0 0.0
  outer loop
    vertex 24.820000000000007 21.5 -2.0000000000000018
    vertex 36.82000000000001 21.5 -0.9999999999999981
    vertex 24.820000000000007 21.5 -0.9999999999999981
  endloop
endfacet
facet normal -0.0 1.0 -0.0
  outer loop
    vertex 24.820000000000007 6.999999999999997 -0.9999999999999981
    vertex 36.82000000000001 6.999999999999997 -2.0000000000000018
    vertex 24.820000000000007 6.999999999999997 -2.0000000000000018
  endloop
endfacet
facet normal -0.0 1.0 -0.0
  outer loop
    vertex 36.82000000000001 6.999999999999997 -2.0000000000000018
    vertex 24.820000000000007 6.999999999999997 -0.9999999999999981
    vertex 36.82000000000001 6.999999999999997 -0.9999999999999981
  endloop
endfacet
facet normal 0.0 1.0 0.0
  outer loop
    vertex 38.620000000000005 4.95 -2.0000000000000018
    vertex 39.82 4.95 -30.0
    vertex 38.620000000000005 4.95 -30.0
  endloop
endfacet
facet normal 0.0 1.0 0.0
  outer loop
    vertex 39.82 4.95 -30.0
    vertex 38.620000000000005 4.95 -2.0000000000000018
    vertex 39.82 4.95 -2.0000000000000018
  endloop
endfacet
facet normal 1.0 -0.0 -0.0
  outer loop
    vertex 24.820000000000007 21.5 -2.0000000000000018
    vertex 24.820000000000007 6.999999999999997 -0.9999999999999981
    vertex 24.820000000000007 6.999999999999997 -2.0000000000000018
  endloop
endfacet
facet normal 1.0 -0.0 -0.0
  outer loop
    vertex 24.820000000000007 6.999999999999997 -0.9999999999999981
    vertex 24.820000000000007 21.5 -2.0000000000000018
    vertex 24.820000000000007 21.5 -0.9999999999999981
  endloop
endfacet
facet normal -1.0 0.0 0.0
  outer loop
    vertex 36.82000000000001 21.5 -0.9999999999999981
    vertex 36.82000000000001 6.999999999999997 -2.0000000000000018
    vertex 36.82000000000001 6.999999999999997 -0.9999999999999981
  endloop
endfacet
facet normal -1.0 0.0 0.0
  outer loop
    vertex 36.82000000000001 6.999999999999997 -2.0000000000000018
    vertex 36.82000000000001 21.5 -0.9999999999999981
    vertex 36.82000000000001 21.5 -2.0000000000000018
  endloop
endfacet
facet normal 0.0 -1.0 0.0
  outer loop
    vertex 38.620000000000005 22.500000000000004 -2.0000000000000018
    vertex 23.020000000000007 22.500000000000004 -30.0
    vertex 38.620000000000005 22.500000000000004 -30.0
  endloop
endfacet
facet normal 0.0 -1.0 0.0
  outer loop
    vertex 23.020000000000007 22.500000000000004 -30.0
    vertex 38.620000000000005 22.500000000000004 -2.0000000000000018
    vertex 23.020000000000007 22.500000000000004 -2.0000000000000018
  endloop
endfacet
facet normal 0.0 0.0 -1.0
  outer loop
    vertex 38.620000000000005 2.75 -2.0000000000000018
    vertex 23.020000000000007 1.9999999999999998 -2.0000000000000018
    vertex 23.020000000000007 2.75 -2.0000000000000018
  endloop
endfacet
facet normal 0.0 0.0 -1.0
  outer loop
    vertex 23.020000000000007 1.9999999999999998 -2.0000000000000018
    vertex 38.620000000000005 2.75 -2.0000000000000018
    vertex 38.620000000000005 1.9999999999999998 -2.0000000000000018
  endloop
endfacet
facet normal 0.0 1.0 0.0
  outer loop
    vertex 21.820000000000004 4.95 -2.0000000000000018
    vertex 23.020000000000007 4.95 -30.0
    vertex 21.820000000000004 4.95 -30.0
  endloop
endfacet
facet normal 0.0 1.0 0.0
  outer loop
    vertex 23.020000000000007 4.95 -30.0
    vertex 21.820000000000004 4.95 -2.0000000000000018
    vertex 23.020000000000007 4.95 -2.0000000000000018
  endloop
endfacet
facet normal -1.0 0.0 0.0
  outer loop
    vertex 38.620000000000005 4.95 -2.0000000000000018
    vertex 38.620000000000005 2.75 -30.0
    vertex 38.620000000000005 2.75 -2.0000000000000018
  endloop
endfacet
facet normal -1.0 0.0 0.0
  outer loop
    vertex 38.620000000000005 2.75 -30.0
    vertex 38.620000000000005 4.95 -2.0000000000000018
    vertex 38.620000000000005 4.95 -30.0
  endloop
endfacet
facet normal -0.0 1.0 -0.0
  outer loop
    vertex 23.020000000000007 2.75 -2.0000000000000018
    vertex 38.620000000000005 2.75 -30.0
    vertex 23.020000000000007 2.75 -30.0
  endloop
endfacet
facet normal -0.0 1.0 -0.0
  outer loop
    vertex 38.620000000000005 2.75 -30.0
    vertex 23.020000000000007 2.75 -2.0000000000000018
    vertex 38.620000000000005 2.75 -2.0000000000000018
  endloop
endfacet
facet normal 0.0 0.0 -1.0
  outer loop
    vertex 23.020000000000007 22.500000000000004 -2.0000000000000018
    vertex 24.820000000000007 21.5 -2.0000000000000018
    vertex 23.020000000000007 6.999999999999997 -2.0000000000000018
  endloop
endfacet
facet normal 0.0 0.0 -1.0
  outer loop
    vertex 24.820000000000007 21.5 -2.0000000000000018
    vertex 23.020000000000007 22.500000000000004 -2.0000000000000018
    vertex 38.620000000000005 22.500000000000004 -2.0000000000000018
  endloop
endfacet
facet normal 0.0 0.0 -1.0
  outer loop
    vertex 23.020000000000007 6.999999999999997 -2.0000000000000018
    vertex 24.820000000000007 21.5 -2.0000000000000018
    vertex 23.020000000000007 4.95 -2.0000000000000018
  endloop
endfacet
facet normal 0.0 0.0 -1.0
  outer loop
    vertex 23.020000000000007 4.95 -2.0000000000000018
    vertex 24.820000000000007 21.5 -2.0000000000000018
    vertex 23.020000000000007 2.75 -2.0000000000000018
  endloop
endfacet
facet normal 0.0 0.0 -1.0
  outer loop
    vertex 24.820000000000007 21.5 -2.0000000000000018
    vertex 38.620000000000005 22.500000000000004 -2.0000000000000018
    vertex 36.82000000000001 21.5 -2.0000000000000018
  endloop
endfacet
facet normal 0.0 0.0 -1.0
  outer loop
    vertex 36.82000000000001 21.5 -2.0000000000000018
    vertex 38.620000000000005 22.500000000000004 -2.0000000000000018
    vertex 36.82000000000001 6.999999999999997 -2.0000000000000018
  endloop
endfacet
facet normal 0.0 0.0 -1.0
  outer loop
    vertex 39.82 6.999999999999997 -2.0000000000000018
    vertex 38.620000000000005 4.95 -2.0000000000000018
    vertex 38.620000000000005 6.999999999999997 -2.0000000000000018
  endloop
endfacet
facet normal 0.0 0.0 -1.0
  outer loop
    vertex 38.620000000000005 4.95 -2.0000000000000018
    vertex 39.82 6.999999999999997 -2.0000000000000018
    vertex 39.82 4.95 -2.0000000000000018
  endloop
endfacet
facet normal 0.0 0.0 -1.0
  outer loop
    vertex 23.020000000000007 2.75 -2.0000000000000018
    vertex 24.820000000000007 6.999999999999997 -2.0000000000000018
    vertex 38.620000000000005 2.75 -2.0000000000000018
  endloop
endfacet
facet normal 0.0 0.0 -1.0
  outer loop
    vertex 24.820000000000007 6.999999999999997 -2.0000000000000018
    vertex 23.020000000000007 2.75 -2.0000000000000018
    vertex 24.820000000000007 21.5 -2.0000000000000018
  endloop
endfacet
facet normal 0.0 0.0 -1.0
  outer loop
    vertex 38.620000000000005 2.75 -2.0000000000000018
    vertex 24.820000000000007 6.999999999999997 -2.0000000000000018
    vertex 36.82000000000001 6.999999999999997 -2.0000000000000018
  endloop
endfacet
facet normal 0.0 0.0 -1.0
  outer loop
    vertex 38.620000000000005 2.75 -2.0000000000000018
    vertex 36.82000000000001 6.999999999999997 -2.0000000000000018
    vertex 38.620000000000005 22.500000000000004 -2.0000000000000018
  endloop
endfacet
facet normal 0.0 0.0 -1.0
  outer loop
    vertex 38.620000000000005 2.75 -2.0000000000000018
    vertex 38.620000000000005 22.500000000000004 -2.0000000000000018
    vertex 38.620000000000005 6.999999999999997 -2.0000000000000018
  endloop
endfacet
facet normal 0.0 0.0 -1.0
  outer loop
    vertex 38.620000000000005 2.75 -2.0000000000000018
    vertex 38.620000000000005 6.999999999999997 -2.0000000000000018
    vertex 38.620000000000005 4.95 -2.0000000000000018
  endloop
endfacet
facet normal 0.0 0.0 -1.0
  outer loop
    vertex 23.020000000000007 6.999999999999997 -2.0000000000000018
    vertex 21.820000000000004 4.95 -2.0000000000000018
    vertex 21.820000000000004 6.999999999999997 -2.0000000000000018
  endloop
endfacet
facet normal 0.0 0.0 -1.0
  outer loop
    vertex 21.820000000000004 4.95 -2.0000000000000018
    vertex 23.020000000000007 6.999999999999997 -2.0000000000000018
    vertex 23.020000000000007 4.95 -2.0000000000000018
  endloop
endfacet
facet normal 1.0 0.0 0.0
  outer loop
    vertex 42.14 7.0 -30.0
    vertex 42.14 4.95 -2.0000000000000018
    vertex 42.14 4.95 -30.0
  endloop
endfacet
facet normal 1.0 0.0 0.0
  outer loop
    vertex 42.14 4.95 -2.0000000000000018
    vertex 42.14 7.0 -30.0
    vertex 42.14 7.0 -2.0000000000000018
  endloop
endfacet
facet normal 0.0 -1.0 0.0
  outer loop
    vertex 43.34 7.0 -2.0000000000000018
    vertex 42.14 7.0 -30.0
    vertex 43.34 7.0 -30.0
  endloop
endfacet
facet normal 0.0 -1.0 0.0
  outer loop
    vertex 42.14 7.0 -30.0
    vertex 43.34 7.0 -2.0000000000000018
    vertex 42.14 7.0 -2.0000000000000018
  endloop
endfacet
facet normal 1.46928669899798e-17 1.0 1.0939045255028004e-32
  outer loop
    vertex 0.0 24.5 -0.9999999999999999
    vertex 122.60000000000002 24.499999999999996 -30.0
    vertex 0.0 24.5 -30.0
  endloop
endfacet
facet normal 1.46928669899798e-17 1.0 1.0939045255028004e-32
  outer loop
    vertex 122.60000000000002 24.499999999999996 -30.0
    vertex 0.0 24.5 -0.9999999999999999
    vertex 122.60000000000002 24.499999999999996 -0.9999999999999981
  endloop
endfacet
facet normal -1.0 0.0 0.0
  outer loop
    vertex 58.94 22.500000000000004 -2.0000000000000018
    vertex 58.94 7.0 -30.0
    vertex 58.94 7.0 -2.0000000000000018
  endloop
endfacet
facet normal -1.0 0.0 0.0
  outer loop
    vertex 58.94 7.0 -30.0
    vertex 58.94 22.500000000000004 -2.0000000000000018
    vertex 58.94 22.500000000000004 -30.0
  endloop
endfacet
facet normal 1.0 -0.0 -0.0
  outer loop
    vertex 43.34 22.500000000000004 -30.0
    vertex 43.34 7.0 -2.0000000000000018
    vertex 43.34 7.0 -30.0
  endloop
endfacet
facet normal 1.0 -0.0 -0.0
  outer loop
    vertex 43.34 7.0 -2.0000000000000018
    vertex 43.34 22.500000000000004 -30.0
    vertex 43.34 22.500000000000004 -2.0000000000000018
  endloop
endfacet
facet normal 1.0 -0.0 -0.0
  outer loop
    vertex 45.14 21.499999999999993 -2.0000000000000018
    vertex 45.14 7.0 -0.9999999999999981
    vertex 45.14 7.0 -2.0000000000000018
  endloop
endfacet
facet normal 1.0 -0.0 -0.0
  outer loop
    vertex 45.14 7.0 -0.9999999999999981
    vertex 45.14 21.499999999999993 -2.0000000000000018
    vertex 45.14 21.499999999999993 -0.9999999999999981
  endloop
endfacet
facet normal -1.0 0.0 0.0
  outer loop
    vertex 57.14 21.499999999999993 -0.9999999999999981
    vertex 57.14 7.0 -2.0000000000000018
    vertex 57.14 7.0 -0.9999999999999981
  endloop
endfacet
facet normal -1.0 0.0 0.0
  outer loop
    vertex 57.14 7.0 -2.0000000000000018
    vertex 57.14 21.499999999999993 -0.9999999999999981
    vertex 57.14 21.499999999999993 -2.0000000000000018
  endloop
endfacet
facet normal 0.0 -1.0 0.0
  outer loop
    vertex 58.94 22.500000000000004 -2.0000000000000018
    vertex 43.34 22.500000000000004 -30.0
    vertex 58.94 22.500000000000004 -30.0
  endloop
endfacet
facet normal 0.0 -1.0 0.0
  outer loop
    vertex 43.34 22.500000000000004 -30.0
    vertex 58.94 22.500000000000004 -2.0000000000000018
    vertex 43.34 22.500000000000004 -2.0000000000000018
  endloop
endfacet
facet normal 0.0 1.0 0.0
  outer loop
    vertex 58.94 4.95 -2.0000000000000018
    vertex 60.14 4.95 -30.0
    vertex 58.94 4.95 -30.0
  endloop
endfacet
facet normal 0.0 1.0 0.0
  outer loop
    vertex 60.14 4.95 -30.0
    vertex 58.94 4.95 -2.0000000000000018
    vertex 60.14 4.95 -2.0000000000000018
  endloop
endfacet
facet normal 1.0 -0.0 -0.0
  outer loop
    vertex 43.34 4.95 -30.0
    vertex 43.34 2.75 -2.0000000000000018
    vertex 43.34 2.75 -30.0
  endloop
endfacet
facet normal 1.0 -0.0 -0.0
  outer loop
    vertex 43.34 2.75 -2.0000000000000018
    vertex 43.34 4.95 -30.0
    vertex 43.34 4.95 -2.0000000000000018
  endloop
endfacet
facet normal 0.0 -1.0 0.0
  outer loop
    vertex 60.14 7.0 -2.0000000000000018
    vertex 58.94 7.0 -30.0
    vertex 60.14 7.0 -30.0
  endloop
endfacet
facet normal 0.0 -1.0 0.0
  outer loop
    vertex 58.94 7.0 -30.0
    vertex 60.14 7.0 -2.0000000000000018
    vertex 58.94 7.0 -2.0000000000000018
  endloop
endfacet
facet normal -1.0 0.0 0.0
  outer loop
    vertex 60.14 7.0 -2.0000000000000018
    vertex 60.14 4.95 -30.0
    vertex 60.14 4.95 -2.0000000000000018
  endloop
endfacet
facet normal -1.0 0.0 0.0
  outer loop
    vertex 60.14 4.95 -30.0
    vertex 60.14 7.0 -2.0000000000000018
    vertex 60.14 7.0 -30.0
  endloop
endfacet
facet normal 0.0 0.0 -1.0
  outer loop
    vertex 43.34 22.500000000000004 -2.0000000000000018
    vertex 45.14 21.499999999999993 -2.0000000000000018
    vertex 43.34 7.0 -2.0000000000000018
  endloop
endfacet
facet normal 0.0 0.0 -1.0
  outer loop
    vertex 45.14 21.499999999999993 -2.0000000000000018
    vertex 43.34 22.500000000000004 -2.0000000000000018
    vertex 58.94 22.500000000000004 -2.0000000000000018
  endloop
endfacet
facet normal 0.0 0.0 -1.0
  outer loop
    vertex 43.34 7.0 -2.0000000000000018
    vertex 45.14 21.499999999999993 -2.0000000000000018
    vertex 43.34 4.95 -2.0000000000000018
  endloop
endfacet
facet normal 0.0 0.0 -1.0
  outer loop
    vertex 43.34 4.95 -2.0000000000000018
    vertex 45.14 21.499999999999993 -2.0000000000000018
    vertex 43.34 2.75 -2.0000000000000018
  endloop
endfacet
facet normal 0.0 0.0 -1.0
  outer loop
    vertex 45.14 21.499999999999993 -2.0000000000000018
    vertex 58.94 22.500000000000004 -2.0000000000000018
    vertex 57.14 21.499999999999993 -2.0000000000000018
  endloop
endfacet
facet normal 0.0 0.0 -1.0
  outer loop
    vertex 57.14 21.499999999999993 -2.0000000000000018
    vertex 58.94 22.500000000000004 -2.0000000000000018
    vertex 57.14 7.0 -2.0000000000000018
  endloop
endfacet
facet normal 0.0 0.0 -1.0
  outer loop
    vertex 60.14 7.0 -2.0000000000000018
    vertex 58.94 4.95 -2.0000000000000018
    vertex 58.94 7.0 -2.0000000000000018
  endloop
endfacet
facet normal 0.0 0.0 -1.0
  outer loop
    vertex 58.94 4.95 -2.0000000000000018
    vertex 60.14 7.0 -2.0000000000000018
    vertex 60.14 4.95 -2.0000000000000018
  endloop
endfacet
facet normal 0.0 0.0 -1.0
  outer loop
    vertex 43.34 2.75 -2.0000000000000018
    vertex 45.14 7.0 -2.0000000000000018
    vertex 58.94 2.75 -2.0000000000000018
  endloop
endfacet
facet normal 0.0 0.0 -1.0
  outer loop
    vertex 45.14 7.0 -2.0000000000000018
    vertex 43.34 2.75 -2.0000000000000018
    vertex 45.14 21.499999999999993 -2.0000000000000018
  endloop
endfacet
facet normal 0.0 0.0 -1.0
  outer loop
    vertex 58.94 2.75 -2.0000000000000018
    vertex 45.14 7.0 -2.0000000000000018
    vertex 57.14 7.0 -2.0000000000000018
  endloop
endfacet
facet normal 0.0 0.0 -1.0
  outer loop
    vertex 58.94 2.75 -2.0000000000000018
    vertex 57.14 7.0 -2.0000000000000018
    vertex 58.94 22.500000000000004 -2.0000000000000018
  endloop
endfacet
facet normal 0.0 0.0 -1.0
  outer loop
    vertex 58.94 2.75 -2.0000000000000018
    vertex 58.94 22.500000000000004 -2.0000000000000018
    vertex 58.94 7.0 -2.0000000000000018
  endloop
endfacet
facet normal 0.0 0.0 -1.0
  outer loop
    vertex 58.94 2.75 -2.0000000000000018
    vertex 58.94 7.0 -2.0000000000000018
    vertex 58.94 4.95 -2.0000000000000018
  endloop
endfacet
facet normal 0.0 0.0 -1.0
  outer loop
    vertex 43.34 7.0 -2.0000000000000018
    vertex 42.14 4.95 -2.0000000000000018
    vertex 42.14 7.0 -2.0000000000000018
  endloop
endfacet
facet normal 0.0 0.0 -1.0
  outer loop
    vertex 42.14 4.95 -2.0000000000000018
    vertex 43.34 7.0 -2.0000000000000018
    vertex 43.34 4.95 -2.0000000000000018
  endloop
endfacet
facet normal 0.0 1.0 0.0
  outer loop
    vertex 42.14 4.95 -2.0000000000000018
    vertex 43.34 4.95 -30.0
    vertex 42.14 4.95 -30.0
  endloop
endfacet
facet normal 0.0 1.0 0.0
  outer loop
    vertex 43.34 4.95 -30.0
    vertex 42.14 4.95 -2.0000000000000018
    vertex 43.34 4.95 -2.0000000000000018
  endloop
endfacet
facet normal -1.0 0.0 0.0
  outer loop
    vertex 58.94 4.95 -2.0000000000000018
    vertex 58.94 2.75 -30.0
    vertex 58.94 2.75 -2.0000000000000018
  endloop
endfacet
facet normal -1.0 0.0 0.0
  outer loop
    vertex 58.94 2.75 -30.0
    vertex 58.94 4.95 -2.0000000000000018
    vertex 58.94 4.95 -30.0
  endloop
endfacet
facet normal 0.0 0.0 -1.0
  outer loop
    vertex 58.94 2.75 -2.0000000000000018
    vertex 43.34 1.9999999999999998 -2.0000000000000018
    vertex 43.34 2.75 -2.0000000000000018
  endloop
endfacet
facet normal 0.0 0.0 -1.0
  outer loop
    vertex 43.34 1.9999999999999998 -2.0000000000000018
    vertex 58.94 2.75 -2.0000000000000018
    vertex 58.94 1.9999999999999998 -2.0000000000000018
  endloop
endfacet
facet normal -0.0 1.0 -0.0
  outer loop
    vertex 43.34 2.75 -2.0000000000000018
    vertex 58.94 2.75 -30.0
    vertex 43.34 2.75 -30.0
  endloop
endfacet
facet normal -0.0 1.0 -0.0
  outer loop
    vertex 58.94 2.75 -30.0
    vertex 43.34 2.75 -2.0000000000000018
    vertex 58.94 2.75 -2.0000000000000018
  endloop
endfacet
facet normal 0.0 -1.0 0.0
  outer loop
    vertex 57.14 21.499999999999993 -0.9999999999999981
    vertex 45.14 21.499999999999993 -2.0000000000000018
    vertex 57.14 21.499999999999993 -2.0000000000000018
  endloop
endfacet
facet normal 0.0 -1.0 0.0
  outer loop
    vertex 45.14 21.499999999999993 -2.0000000000000018
    vertex 57.14 21.499999999999993 -0.9999999999999981
    vertex 45.14 21.499999999999993 -0.9999999999999981
  endloop
endfacet
facet normal -0.0 1.0 -0.0
  outer loop
    vertex 45.14 7.0 -0.9999999999999981
    vertex 57.14 7.0 -2.0000000000000018
    vertex 45.14 7.0 -2.0000000000000018
  endloop
endfacet
facet normal -0.0 1.0 -0.0
  outer loop
    vertex 57.14 7.0 -2.0000000000000018
    vertex 45.14 7.0 -0.9999999999999981
    vertex 57.14 7.0 -0.9999999999999981
  endloop
endfacet
facet normal 0.0 -1.0 0.0
  outer loop
    vertex 63.660000000000004 7.0 -2.0000000000000018
    vertex 62.459999999999994 7.0 -30.0
    vertex 63.660000000000004 7.0 -30.0
  endloop
endfacet
facet normal 0.0 -1.0 0.0
  outer loop
    vertex 62.459999999999994 7.0 -30.0
    vertex 63.660000000000004 7.0 -2.0000000000000018
    vertex 62.459999999999994 7.0 -2.0000000000000018
  endloop
endfacet
facet normal 1.0 0.0 0.0
  outer loop
    vertex 62.459999999999994 7.0 -30.0
    vertex 62.459999999999994 4.95 -2.0000000000000018
    vertex 62.459999999999994 4.95 -30.0
  endloop
endfacet
facet normal 1.0 0.0 0.0
  outer loop
    vertex 62.459999999999994 4.95 -2.0000000000000018
    vertex 62.459999999999994 7.0 -30.0
    vertex 62.459999999999994 7.0 -2.0000000000000018
  endloop
endfacet
facet normal 1.0 -0.0 -0.0
  outer loop
    vertex 65.46 21.5 -2.0000000000000018
    vertex 65.46 7.0 -0.9999999999999981
    vertex 65.46 7.0 -2.0000000000000018
  endloop
endfacet
facet normal 1.0 -0.0 -0.0
  outer loop
    vertex 65.46 7.0 -0.9999999999999981
    vertex 65.46 21.5 -2.0000000000000018
    vertex 65.46 21.5 -0.9999999999999981
  endloop
endfacet
facet normal 1.0 -0.0 -0.0
  outer loop
    vertex 63.660000000000004 22.500000000000007 -30.0
    vertex 63.660000000000004 7.0 -2.0000000000000018
    vertex 63.660000000000004 7.0 -30.0
  endloop
endfacet
facet normal 1.0 -0.0 -0.0
  outer loop
    vertex 63.660000000000004 7.0 -2.0000000000000018
    vertex 63.660000000000004 22.500000000000007 -30.0
    vertex 63.660000000000004 22.500000000000007 -2.0000000000000018
  endloop
endfacet
facet normal -1.0 0.0 0.0
  outer loop
    vertex 79.26000000000002 22.500000000000007 -2.0000000000000018
    vertex 79.26000000000002 7.0 -30.0
    vertex 79.26000000000002 7.0 -2.0000000000000018
  endloop
endfacet
facet normal -1.0 0.0 0.0
  outer loop
    vertex 79.26000000000002 7.0 -30.0
    vertex 79.26000000000002 22.500000000000007 -2.0000000000000018
    vertex 79.26000000000002 22.500000000000007 -30.0
  endloop
endfacet
facet normal -1.0 0.0 0.0
  outer loop
    vertex 77.46000000000002 21.5 -0.9999999999999981
    vertex 77.46000000000002 7.0 -2.0000000000000018
    vertex 77.46000000000002 7.0 -0.9999999999999981
  endloop
endfacet
facet normal -1.0 0.0 0.0
  outer loop
    vertex 77.46000000000002 7.0 -2.0000000000000018
    vertex 77.46000000000002 21.5 -0.9999999999999981
    vertex 77.46000000000002 21.5 -2.0000000000000018
  endloop
endfacet
facet normal 0.0 -1.0 0.0
  outer loop
    vertex 79.26000000000002 22.500000000000007 -2.0000000000000018
    vertex 63.660000000000004 22.500000000000007 -30.0
    vertex 79.26000000000002 22.500000000000007 -30.0
  endloop
endfacet
facet normal 0.0 -1.0 0.0
  outer loop
    vertex 63.660000000000004 22.500000000000007 -30.0
    vertex 79.26000000000002 22.500000000000007 -2.0000000000000018
    vertex 63.660000000000004 22.500000000000007 -2.0000000000000018
  endloop
endfacet
facet normal -2.38886353313776e-18 -1.0 -2.643731880480756e-19
  outer loop
    vertex 122.60000000000002 0.9999999999999996 -0.9999999999999981
    vertex 0.0 0.9999999999999999 -30.0
    vertex 122.60000000000002 0.9999999999999996 -30.0
  endloop
endfacet
facet normal -2.38886353313776e-18 -1.0 -2.643731880480756e-19
  outer loop
    vertex 0.0 0.9999999999999999 -30.0
    vertex 122.60000000000002 0.9999999999999996 -0.9999999999999981
    vertex 0.0 0.9999999999999999 -0.9999999999999999
  endloop
endfacet
facet normal 0.0 1.0 0.0
  outer loop
    vertex 79.26000000000002 4.95 -2.0000000000000018
    vertex 80.46000000000001 4.95 -30.0
    vertex 79.26000000000002 4.95 -30.0
  endloop
endfacet
facet normal 0.0 1.0 0.0
  outer loop
    vertex 80.46000000000001 4.95 -30.0
    vertex 79.26000000000002 4.95 -2.0000000000000018
    vertex 80.46000000000001 4.95 -2.0000000000000018
  endloop
endfacet
facet normal 1.0 -0.0 -0.0
  outer loop
    vertex 63.660000000000004 4.95 -30.0
    vertex 63.660000000000004 2.75 -2.0000000000000018
    vertex 63.660000000000004 2.75 -30.0
  endloop
endfacet
facet normal 1.0 -0.0 -0.0
  outer loop
    vertex 63.660000000000004 2.75 -2.0000000000000018
    vertex 63.660000000000004 4.95 -30.0
    vertex 63.660000000000004 4.95 -2.0000000000000018
  endloop
endfacet
facet normal 0.0 1.0 0.0
  outer loop
    vertex 62.459999999999994 4.95 -2.0000000000000018
    vertex 63.660000000000004 4.95 -30.0
    vertex 62.459999999999994 4.95 -30.0
  endloop
endfacet
facet normal 0.0 1.0 0.0
  outer loop
    vertex 63.660000000000004 4.95 -30.0
    vertex 62.459999999999994 4.95 -2.0000000000000018
    vertex 63.660000000000004 4.95 -2.0000000000000018
  endloop
endfacet
facet normal 0.0 -1.0 0.0
  outer loop
    vertex 80.46000000000001 7.0 -2.0000000000000018
    vertex 79.26000000000002 7.0 -30.0
    vertex 80.46000000000001 7.0 -30.0
  endloop
endfacet
facet normal 0.0 -1.0 0.0
  outer loop
    vertex 79.26000000000002 7.0 -30.0
    vertex 80.46000000000001 7.0 -2.0000000000000018
    vertex 79.26000000000002 7.0 -2.0000000000000018
  endloop
endfacet
facet normal -1.0 0.0 0.0
  outer loop
    vertex 80.46000000000001 7.0 -2.0000000000000018
    vertex 80.46000000000001 4.95 -30.0
    vertex 80.46000000000001 4.95 -2.0000000000000018
  endloop
endfacet
facet normal -1.0 0.0 0.0
  outer loop
    vertex 80.46000000000001 4.95 -30.0
    vertex 80.46000000000001 7.0 -2.0000000000000018
    vertex 80.46000000000001 7.0 -30.0
  endloop
endfacet
facet normal 0.0 0.0 -1.0
  outer loop
    vertex 63.660000000000004 22.500000000000007 -2.0000000000000018
    vertex 65.46 21.5 -2.0000000000000018
    vertex 63.660000000000004 7.0 -2.0000000000000018
  endloop
endfacet
facet normal 0.0 0.0 -1.0
  outer loop
    vertex 65.46 21.5 -2.0000000000000018
    vertex 63.660000000000004 22.500000000000007 -2.0000000000000018
    vertex 79.26000000000002 22.500000000000007 -2.0000000000000018
  endloop
endfacet
facet normal 0.0 0.0 -1.0
  outer loop
    vertex 63.660000000000004 7.0 -2.0000000000000018
    vertex 65.46 21.5 -2.0000000000000018
    vertex 63.660000000000004 4.95 -2.0000000000000018
  endloop
endfacet
facet normal 0.0 0.0 -1.0
  outer loop
    vertex 63.660000000000004 4.95 -2.0000000000000018
    vertex 65.46 21.5 -2.0000000000000018
    vertex 63.660000000000004 2.75 -2.0000000000000018
  endloop
endfacet
facet normal 0.0 0.0 -1.0
  outer loop
    vertex 65.46 21.5 -2.0000000000000018
    vertex 79.26000000000002 22.500000000000007 -2.0000000000000018
    vertex 77.46000000000002 21.5 -2.0000000000000018
  endloop
endfacet
facet normal 0.0 0.0 -1.0
  outer loop
    vertex 77.46000000000002 21.5 -2.0000000000000018
    vertex 79.26000000000002 22.500000000000007 -2.0000000000000018
    vertex 77.46000000000002 7.0 -2.0000000000000018
  endloop
endfacet
facet normal 0.0 0.0 -1.0
  outer loop
    vertex 80.46000000000001 7.0 -2.0000000000000018
    vertex 79.26000000000002 4.95 -2.0000000000000018
    vertex 79.26000000000002 7.0 -2.0000000000000018
  endloop
endfacet
facet normal 0.0 0.0 -1.0
  outer loop
    vertex 79.26000000000002 4.95 -2.0000000000000018
    vertex 80.46000000000001 7.0 -2.0000000000000018
    vertex 80.46000000000001 4.95 -2.0000000000000018
  endloop
endfacet
facet normal 0.0 0.0 -1.0
  outer loop
    vertex 63.660000000000004 2.75 -2.0000000000000018
    vertex 65.46 7.0 -2.0000000000000018
    vertex 79.26000000000002 2.75 -2.0000000000000018
  endloop
endfacet
facet normal 0.0 0.0 -1.0
  outer loop
    vertex 65.46 7.0 -2.0000000000000018
    vertex 63.660000000000004 2.75 -2.0000000000000018
    vertex 65.46 21.5 -2.0000000000000018
  endloop
endfacet
facet normal 0.0 0.0 -1.0
  outer loop
    vertex 79.26000000000002 2.75 -2.0000000000000018
    vertex 65.46 7.0 -2.0000000000000018
    vertex 77.46000000000002 7.0 -2.0000000000000018
  endloop
endfacet
facet normal 0.0 0.0 -1.0
  outer loop
    vertex 79.26000000000002 2.75 -2.0000000000000018
    vertex 77.46000000000002 7.0 -2.0000000000000018
    vertex 79.26000000000002 22.500000000000007 -2.0000000000000018
  endloop
endfacet
facet normal 0.0 0.0 -1.0
  outer loop
    vertex 79.26000000000002 2.75 -2.0000000000000018
    vertex 79.26000000000002 22.500000000000007 -2.0000000000000018
    vertex 79.26000000000002 7.0 -2.0000000000000018
  endloop
endfacet
facet normal 0.0 0.0 -1.0
  outer loop
    vertex 79.26000000000002 2.75 -2.0000000000000018
    vertex 79.26000000000002 7.0 -2.0000000000000018
    vertex 79.26000000000002 4.95 -2.0000000000000018
  endloop
endfacet
facet normal 0.0 0.0 -1.0
  outer loop
    vertex 63.660000000000004 7.0 -2.0000000000000018
    vertex 62.459999999999994 4.95 -2.0000000000000018
    vertex 62.459999999999994 7.0 -2.0000000000000018
  endloop
endfacet
facet normal 0.0 0.0 -1.0
  outer loop
    vertex 62.459999999999994 4.95 -2.0000000000000018
    vertex 63.660000000000004 7.0 -2.0000000000000018
    vertex 63.660000000000004 4.95 -2.0000000000000018
  endloop
endfacet
facet normal -0.0 1.0 -0.0
  outer loop
    vertex 65.46 7.0 -0.9999999999999981
    vertex 77.46000000000002 7.0 -2.0000000000000018
    vertex 65.46 7.0 -2.0000000000000018
  endloop
endfacet
facet normal -0.0 1.0 -0.0
  outer loop
    vertex 77.46000000000002 7.0 -2.0000000000000018
    vertex 65.46 7.0 -0.9999999999999981
    vertex 77.46000000000002 7.0 -0.9999999999999981
  endloop
endfacet
facet normal -1.0 0.0 0.0
  outer loop
    vertex 79.26000000000002 4.95 -2.0000000000000018
    vertex 79.26000000000002 2.75 -30.0
    vertex 79.26000000000002 2.75 -2.0000000000000018
  endloop
endfacet
facet normal -1.0 0.0 0.0
  outer loop
    vertex 79.26000000000002 2.75 -30.0
    vertex 79.26000000000002 4.95 -2.0000000000000018
    vertex 79.26000000000002 4.95 -30.0
  endloop
endfacet
facet normal -0.0 1.0 -0.0
  outer loop
    vertex 63.660000000000004 2.75 -2.0000000000000018
    vertex 79.26000000000002 2.75 -30.0
    vertex 63.660000000000004 2.75 -30.0
  endloop
endfacet
facet normal -0.0 1.0 -0.0
  outer loop
    vertex 79.26000000000002 2.75 -30.0
    vertex 63.660000000000004 2.75 -2.0000000000000018
    vertex 79.26000000000002 2.75 -2.0000000000000018
  endloop
endfacet
facet normal 0.0 0.0 -1.0
  outer loop
    vertex 79.26000000000002 2.75 -2.0000000000000018
    vertex 63.660000000000004 1.9999999999999998 -2.0000000000000018
    vertex 63.660000000000004 2.75 -2.0000000000000018
  endloop
endfacet
facet normal 0.0 0.0 -1.0
  outer loop
    vertex 63.660000000000004 1.9999999999999998 -2.0000000000000018
    vertex 79.26000000000002 2.75 -2.0000000000000018
    vertex 79.26000000000002 1.9999999999999998 -2.0000000000000018
  endloop
endfacet
facet normal 0.0 -1.0 0.0
  outer loop
    vertex 77.46000000000002 21.5 -0.9999999999999981
    vertex 65.46 21.5 -2.0000000000000018
    vertex 77.46000000000002 21.5 -2.0000000000000018
  endloop
endfacet
facet normal 0.0 -1.0 0.0
  outer loop
    vertex 65.46 21.5 -2.0000000000000018
    vertex 77.46000000000002 21.5 -0.9999999999999981
    vertex 65.46 21.5 -0.9999999999999981
  endloop
endfacet
facet normal 1.0 0.0 0.0
  outer loop
    vertex 82.77999999999999 7.0 -30.0
    vertex 82.77999999999999 4.95 -2.0000000000000018
    vertex 82.77999999999999 4.95 -30.0
  endloop
endfacet
facet normal 1.0 0.0 0.0
  outer loop
    vertex 82.77999999999999 4.95 -2.0000000000000018
    vertex 82.77999999999999 7.0 -30.0
    vertex 82.77999999999999 7.0 -2.0000000000000018
  endloop
endfacet
facet normal 1.0 -0.0 -0.0
  outer loop
    vertex 85.77999999999999 21.5 -2.0000000000000018
    vertex 85.77999999999999 7.0 -0.9999999999999981
    vertex 85.77999999999999 7.0 -2.0000000000000018
  endloop
endfacet
facet normal 1.0 -0.0 -0.0
  outer loop
    vertex 85.77999999999999 7.0 -0.9999999999999981
    vertex 85.77999999999999 21.5 -2.0000000000000018
    vertex 85.77999999999999 21.5 -0.9999999999999981
  endloop
endfacet
facet normal 1.0 -0.0 -0.0
  outer loop
    vertex 83.97999999999999 22.500000000000004 -30.0
    vertex 83.97999999999999 7.0 -2.0000000000000018
    vertex 83.97999999999999 7.0 -30.0
  endloop
endfacet
facet normal 1.0 -0.0 -0.0
  outer loop
    vertex 83.97999999999999 7.0 -2.0000000000000018
    vertex 83.97999999999999 22.500000000000004 -30.0
    vertex 83.97999999999999 22.500000000000004 -2.0000000000000018
  endloop
endfacet
facet normal -1.0 0.0 0.0
  outer loop
    vertex 99.58000000000001 22.500000000000004 -2.0000000000000018
    vertex 99.58000000000001 7.0 -30.0
    vertex 99.58000000000001 7.0 -2.0000000000000018
  endloop
endfacet
facet normal -1.0 0.0 0.0
  outer loop
    vertex 99.58000000000001 7.0 -30.0
    vertex 99.58000000000001 22.500000000000004 -2.0000000000000018
    vertex 99.58000000000001 22.500000000000004 -30.0
  endloop
endfacet
facet normal 0.0 -1.0 0.0
  outer loop
    vertex 83.97999999999999 7.0 -2.0000000000000018
    vertex 82.77999999999999 7.0 -30.0
    vertex 83.97999999999999 7.0 -30.0
  endloop
endfacet
facet normal 0.0 -1.0 0.0
  outer loop
    vertex 82.77999999999999 7.0 -30.0
    vertex 83.97999999999999 7.0 -2.0000000000000018
    vertex 82.77999999999999 7.0 -2.0000000000000018
  endloop
endfacet
facet normal 1.0 -0.0 -0.0
  outer loop
    vertex 83.97999999999999 4.95 -30.0
    vertex 83.97999999999999 2.75 -2.0000000000000018
    vertex 83.97999999999999 2.75 -30.0
  endloop
endfacet
facet normal 1.0 -0.0 -0.0
  outer loop
    vertex 83.97999999999999 2.75 -2.0000000000000018
    vertex 83.97999999999999 4.95 -30.0
    vertex 83.97999999999999 4.95 -2.0000000000000018
  endloop
endfacet
facet normal 0.0 -1.0 0.0
  outer loop
    vertex 97.78000000000002 21.5 -0.9999999999999981
    vertex 85.77999999999999 21.5 -2.0000000000000018
    vertex 97.78000000000002 21.5 -2.0000000000000018
  endloop
endfacet
facet normal 0.0 -1.0 0.0
  outer loop
    vertex 85.77999999999999 21.5 -2.0000000000000018
    vertex 97.78000000000002 21.5 -0.9999999999999981
    vertex 85.77999999999999 21.5 -0.9999999999999981
  endloop
endfacet
facet normal -1.0 0.0 0.0
  outer loop
    vertex 99.58000000000001 4.95 -2.0000000000000018
    vertex 99.58000000000001 2.75 -30.0
    vertex 99.58000000000001 2.75 -2.0000000000000018
  endloop
endfacet
facet normal -1.0 0.0 0.0
  outer loop
    vertex 99.58000000000001 2.75 -30.0
    vertex 99.58000000000001 4.95 -2.0000000000000018
    vertex 99.58000000000001 4.95 -30.0
  endloop
endfacet
facet normal -0.0 1.0 -0.0
  outer loop
    vertex 85.77999999999999 7.0 -0.9999999999999981
    vertex 97.78000000000002 7.0 -2.0000000000000018
    vertex 85.77999999999999 7.0 -2.0000000000000018
  endloop
endfacet
facet normal -0.0 1.0 -0.0
  outer loop
    vertex 97.78000000000002 7.0 -2.0000000000000018
    vertex 85.77999999999999 7.0 -0.9999999999999981
    vertex 97.78000000000002 7.0 -0.9999999999999981
  endloop
endfacet
facet normal 0.0 0.0 -1.0
  outer loop
    vertex 83.97999999999999 22.500000000000004 -2.0000000000000018
    vertex 85.77999999999999 21.5 -2.0000000000000018
    vertex 83.97999999999999 7.0 -2.0000000000000018
  endloop
endfacet
facet normal 0.0 0.0 -1.0
  outer loop
    vertex 85.77999999999999 21.5 -2.0000000000000018
    vertex 83.97999999999999 22.500000000000004 -2.0000000000000018
    vertex 99.58000000000001 22.500000000000004 -2.0000000000000018
  endloop
endfacet
facet normal 0.0 0.0 -1.0
  outer loop
    vertex 83.97999999999999 7.0 -2.0000000000000018
    vertex 85.77999999999999 21.5 -2.0000000000000018
    vertex 83.97999999999999 4.95 -2.0000000000000018
  endloop
endfacet
facet normal 0.0 0.0 -1.0
  outer loop
    vertex 83.97999999999999 4.95 -2.0000000000000018
    vertex 85.77999999999999 21.5 -2.0000000000000018
    vertex 83.97999999999999 2.75 -2.0000000000000018
  endloop
endfacet
facet normal 0.0 0.0 -1.0
  outer loop
    vertex 85.77999999999999 21.5 -2.0000000000000018
    vertex 99.58000000000001 22.500000000000004 -2.0000000000000018
    vertex 97.78000000000002 21.5 -2.0000000000000018
  endloop
endfacet
facet normal 0.0 0.0 -1.0
  outer loop
    vertex 97.78000000000002 21.5 -2.0000000000000018
    vertex 99.58000000000001 22.500000000000004 -2.0000000000000018
    vertex 97.78000000000002 7.0 -2.0000000000000018
  endloop
endfacet
facet normal 0.0 0.0 -1.0
  outer loop
    vertex 100.78 7.0 -2.0000000000000018
    vertex 99.58000000000001 4.95 -2.0000000000000018
    vertex 99.58000000000001 7.0 -2.0000000000000018
  endloop
endfacet
facet normal 0.0 0.0 -1.0
  outer loop
    vertex 99.58000000000001 4.95 -2.0000000000000018
    vertex 100.78 7.0 -2.0000000000000018
    vertex 100.78 4.95 -2.0000000000000018
  endloop
endfacet
facet normal 0.0 0.0 -1.0
  outer loop
    vertex 83.97999999999999 2.75 -2.0000000000000018
    vertex 85.77999999999999 7.0 -2.0000000000000018
    vertex 99.58000000000001 2.75 -2.0000000000000018
  endloop
endfacet
facet normal 0.0 0.0 -1.0
  outer loop
    vertex 85.77999999999999 7.0 -2.0000000000000018
    vertex 83.97999999999999 2.75 -2.0000000000000018
    vertex 85.77999999999999 21.5 -2.0000000000000018
  endloop
endfacet
facet normal 0.0 0.0 -1.0
  outer loop
    vertex 99.58000000000001 2.75 -2.0000000000000018
    vertex 85.77999999999999 7.0 -2.0000000000000018
    vertex 97.78000000000002 7.0 -2.0000000000000018
  endloop
endfacet
facet normal 0.0 0.0 -1.0
  outer loop
    vertex 99.58000000000001 2.75 -2.0000000000000018
    vertex 97.78000000000002 7.0 -2.0000000000000018
    vertex 99.58000000000001 22.500000000000004 -2.0000000000000018
  endloop
endfacet
facet normal 0.0 0.0 -1.0
  outer loop
    vertex 99.58000000000001 2.75 -2.0000000000000018
    vertex 99.58000000000001 22.500000000000004 -2.0000000000000018
    vertex 99.58000000000001 7.0 -2.0000000000000018
  endloop
endfacet
facet normal 0.0 0.0 -1.0
  outer loop
    vertex 99.58000000000001 2.75 -2.0000000000000018
    vertex 99.58000000000001 7.0 -2.0000000000000018
    vertex 99.58000000000001 4.95 -2.0000000000000018
  endloop
endfacet
facet normal 0.0 0.0 -1.0
  outer loop
    vertex 83.97999999999999 7.0 -2.0000000000000018
    vertex 82.77999999999999 4.95 -2.0000000000000018
    vertex 82.77999999999999 7.0 -2.0000000000000018
  endloop
endfacet
facet normal 0.0 0.0 -1.0
  outer loop
    vertex 82.77999999999999 4.95 -2.0000000000000018
    vertex 83.97999999999999 7.0 -2.0000000000000018
    vertex 83.97999999999999 4.95 -2.0000000000000018
  endloop
endfacet
facet normal 0.0 1.0 0.0
  outer loop
    vertex 82.77999999999999 4.95 -2.0000000000000018
    vertex 83.97999999999999 4.95 -30.0
    vertex 82.77999999999999 4.95 -30.0
  endloop
endfacet
facet normal 0.0 1.0 0.0
  outer loop
    vertex 83.97999999999999 4.95 -30.0
    vertex 82.77999999999999 4.95 -2.0000000000000018
    vertex 83.97999999999999 4.95 -2.0000000000000018
  endloop
endfacet
facet normal -0.0 1.0 -0.0
  outer loop
    vertex 83.97999999999999 2.75 -2.0000000000000018
    vertex 99.58000000000001 2.75 -30.0
    vertex 83.97999999999999 2.75 -30.0
  endloop
endfacet
facet normal -0.0 1.0 -0.0
  outer loop
    vertex 99.58000000000001 2.75 -30.0
    vertex 83.97999999999999 2.75 -2.0000000000000018
    vertex 99.58000000000001 2.75 -2.0000000000000018
  endloop
endfacet
facet normal 0.0 0.0 -1.0
  outer loop
    vertex 99.58000000000001 2.75 -2.0000000000000018
    vertex 83.97999999999999 1.9999999999999998 -2.0000000000000018
    vertex 83.97999999999999 2.75 -2.0000000000000018
  endloop
endfacet
facet normal 0.0 0.0 -1.0
  outer loop
    vertex 83.97999999999999 1.9999999999999998 -2.0000000000000018
    vertex 99.58000000000001 2.75 -2.0000000000000018
    vertex 99.58000000000001 1.9999999999999998 -2.0000000000000018
  endloop
endfacet
facet normal 0.0 -1.0 0.0
  outer loop
    vertex 100.78 7.0 -2.0000000000000018
    vertex 99.58000000000001 7.0 -30.0
    vertex 100.78 7.0 -30.0
  endloop
endfacet
facet normal 0.0 -1.0 0.0
  outer loop
    vertex 99.58000000000001 7.0 -30.0
    vertex 100.78 7.0 -2.0000000000000018
    vertex 99.58000000000001 7.0 -2.0000000000000018
  endloop
endfacet
facet normal -1.0 0.0 0.0
  outer loop
    vertex 100.78 7.0 -2.0000000000000018
    vertex 100.78 4.95 -30.0
    vertex 100.78 4.95 -2.0000000000000018
  endloop
endfacet
facet normal -1.0 0.0 0.0
  outer loop
    vertex 100.78 4.95 -30.0
    vertex 100.78 7.0 -2.0000000000000018
    vertex 100.78 7.0 -30.0
  endloop
endfacet
facet normal 0.0 1.0 0.0
  outer loop
    vertex 99.58000000000001 4.95 -2.0000000000000018
    vertex 100.78 4.95 -30.0
    vertex 99.58000000000001 4.95 -30.0
  endloop
endfacet
facet normal 0.0 1.0 0.0
  outer loop
    vertex 100.78 4.95 -30.0
    vertex 99.58000000000001 4.95 -2.0000000000000018
    vertex 100.78 4.95 -2.0000000000000018
  endloop
endfacet
facet normal 0.0 -1.0 0.0
  outer loop
    vertex 99.58000000000001 22.500000000000004 -2.0000000000000018
    vertex 83.97999999999999 22.500000000000004 -30.0
    vertex 99.58000000000001 22.500000000000004 -30.0
  endloop
endfacet
facet normal 0.0 -1.0 0.0
  outer loop
    vertex 83.97999999999999 22.500000000000004 -30.0
    vertex 99.58000000000001 22.500000000000004 -2.0000000000000018
    vertex 83.97999999999999 22.500000000000004 -2.0000000000000018
  endloop
endfacet
facet normal -1.0 0.0 0.0
  outer loop
    vertex 97.78000000000002 21.5 -0.9999999999999981
    vertex 97.78000000000002 7.0 -2.0000000000000018
    vertex 97.78000000000002 7.0 -0.9999999999999981
  endloop
endfacet
facet normal -1.0 0.0 0.0
  outer loop
    vertex 97.78000000000002 7.0 -2.0000000000000018
    vertex 97.78000000000002 21.5 -0.9999999999999981
    vertex 97.78000000000002 21.5 -2.0000000000000018
  endloop
endfacet
facet normal -1.0 0.0 0.0
  outer loop
    vertex 119.9 22.500000000000004 -2.0000000000000018
    vertex 119.9 7.000000000000001 -30.0
    vertex 119.9 7.000000000000001 -2.0000000000000018
  endloop
endfacet
facet normal -1.0 0.0 0.0
  outer loop
    vertex 119.9 7.000000000000001 -30.0
    vertex 119.9 22.500000000000004 -2.0000000000000018
    vertex 119.9 22.500000000000004 -30.0
  endloop
endfacet
facet normal -1.274843081620524e-17 -1.9910215895663952e-17 1.0
  outer loop
    vertex 0.0 0.9999999999999999 -0.9999999999999999
    vertex 4.500000000000002 7.0 -1.0000000000000002
    vertex 0.0 24.5 -0.9999999999999999
  endloop
endfacet
facet normal -1.274843081620524e-17 -1.9910215895663952e-17 1.0
  outer loop
    vertex 4.500000000000002 7.0 -1.0000000000000002
    vertex 0.0 0.9999999999999999 -0.9999999999999999
    vertex 122.60000000000002 0.9999999999999996 -0.9999999999999981
  endloop
endfacet
facet normal -1.274843081620524e-17 -1.9910215895663952e-17 1.0
  outer loop
    vertex 4.500000000000002 7.0 -1.0000000000000002
    vertex 122.60000000000002 0.9999999999999996 -0.9999999999999981
    vertex 16.5 7.0 -0.9999999999999999
  endloop
endfacet
facet normal -1.274843081620524e-17 -1.9910215895663952e-17 1.0
  outer loop
    vertex 16.5 7.0 -0.9999999999999999
    vertex 122.60000000000002 0.9999999999999996 -0.9999999999999981
    vertex 24.820000000000007 6.999999999999997 -0.9999999999999981
  endloop
endfacet
facet normal -1.274843081620524e-17 -1.9910215895663952e-17 1.0
  outer loop
    vertex 16.5 7.0 -0.9999999999999999
    vertex 24.820000000000007 6.999999999999997 -0.9999999999999981
    vertex 16.5 21.5 -0.9999999999999999
  endloop
endfacet
facet normal -1.274843081620524e-17 -1.9910215895663952e-17 1.0
  outer loop
    vertex 24.820000000000007 6.999999999999997 -0.9999999999999981
    vertex 122.60000000000002 0.9999999999999996 -0.9999999999999981
    vertex 36.82000000000001 6.999999999999997 -0.9999999999999981
  endloop
endfacet
facet normal -1.274843081620524e-17 -1.9910215895663952e-17 1.0
  outer loop
    vertex 36.82000000000001 6.999999999999997 -0.9999999999999981
    vertex 122.60000000000002 0.9999999999999996 -0.9999999999999981
    vertex 45.14 7.0 -0.9999999999999981
  endloop
endfacet
facet normal -1.274843081620524e-17 -1.9910215895663952e-17 1.0
  outer loop
    vertex 36.82000000000001 6.999999999999997 -0.9999999999999981
    vertex 45.14 7.0 -0.9999999999999981
    vertex 36.82000000000001 21.5 -0.9999999999999981
  endloop
endfacet
facet normal -1.274843081620524e-17 -1.9910215895663952e-17 1.0
  outer loop
    vertex 45.14 7.0 -0.9999999999999981
    vertex 122.60000000000002 0.9999999999999996 -0.9999999999999981
    vertex 57.14 7.0 -0.9999999999999981
  endloop
endfacet
facet normal -1.274843081620524e-17 -1.9910215895663952e-17 1.0
  outer loop
    vertex 57.14 7.0 -0.9999999999999981
    vertex 122.60000000000002 0.9999999999999996 -0.9999999999999981
    vertex 65.46 7.0 -0.9999999999999981
  endloop
endfacet
facet normal -1.274843081620524e-17 -1.9910215895663952e-17 1.0
  outer loop
    vertex 57.14 7.0 -0.9999999999999981
    vertex 65.46 7.0 -0.9999999999999981
    vertex 57.14 21.499999999999993 -0.9999999999999981
  endloop
endfacet
facet normal -1.274843081620524e-17 -1.9910215895663952e-17 1.0
  outer loop
    vertex 65.46 7.0 -0.9999999999999981
    vertex 122.60000000000002 0.9999999999999996 -0.9999999999999981
    vertex 77.46000000000002 7.0 -0.9999999999999981
  endloop
endfacet
facet normal -1.274843081620524e-17 -1.9910215895663952e-17 1.0
  outer loop
    vertex 77.46000000000002 7.0 -0.9999999999999981
    vertex 122.60000000000002 0.9999999999999996 -0.9999999999999981
    vertex 85.77999999999999 7.0 -0.9999999999999981
  endloop
endfacet
facet normal -1.274843081620524e-17 -1.9910215895663952e-17 1.0
  outer loop
    vertex 77.46000000000002 7.0 -0.9999999999999981
    vertex 85.77999999999999 7.0 -0.9999999999999981
    vertex 77.46000000000002 21.5 -0.9999999999999981
  endloop
endfacet
facet normal -1.274843081620524e-17 -1.9910215895663952e-17 1.0
  outer loop
    vertex 85.77999999999999 7.0 -0.9999999999999981
    vertex 122.60000000000002 0.9999999999999996 -0.9999999999999981
    vertex 97.78000000000002 7.0 -0.9999999999999981
  endloop
endfacet
facet normal -1.274843081620524e-17 -1.9910215895663952e-17 1.0
  outer loop
    vertex 97.78000000000002 7.0 -0.9999999999999981
    vertex 122.60000000000002 0.9999999999999996 -0.9999999999999981
    vertex 106.09999999999998 7.000000000000001 -0.9999999999999981
  endloop
endfacet
facet normal -1.274843081620524e-17 -1.9910215895663952e-17 1.0
  outer loop
    vertex 97.78000000000002 7.0 -0.9999999999999981
    vertex 106.09999999999998 7.000000000000001 -0.9999999999999981
    vertex 97.78000000000002 21.5 -0.9999999999999981
  endloop
endfacet
facet normal -1.274843081620524e-17 -1.9910215895663952e-17 1.0
  outer loop
    vertex 106.09999999999998 7.000000000000001 -0.9999999999999981
    vertex 122.60000000000002 0.9999999999999996 -0.9999999999999981
    vertex 118.10000000000001 7.000000000000001 -0.9999999999999981
  endloop
endfacet
facet normal -1.274843081620524e-17 -1.9910215895663952e-17 1.0
  outer loop
    vertex 118.10000000000001 7.000000000000001 -0.9999999999999981
    vertex 122.60000000000002 0.9999999999999996 -0.9999999999999981
    vertex 118.10000000000001 21.499999999999993 -0.9999999999999981
  endloop
endfacet
facet normal -1.274843081620524e-17 -1.9910215895663952e-17 1.0
  outer loop
    vertex 0.0 24.5 -0.9999999999999999
    vertex 4.500000000000002 21.5 -1.0000000000000002
    vertex 122.60000000000002 24.499999999999996 -0.9999999999999981
  endloop
endfacet
facet normal -1.274843081620524e-17 -1.9910215895663952e-17 1.0
  outer loop
    vertex 4.500000000000002 21.5 -1.0000000000000002
    vertex 0.0 24.5 -0.9999999999999999
    vertex 4.500000000000002 7.0 -1.0000000000000002
  endloop
endfacet
facet normal -1.274843081620524e-17 -1.9910215895663952e-17 1.0
  outer loop
    vertex 122.60000000000002 24.499999999999996 -0.9999999999999981
    vertex 4.500000000000002 21.5 -1.0000000000000002
    vertex 16.5 21.5 -0.9999999999999999
  endloop
endfacet
facet normal -1.274843081620524e-17 -1.9910215895663952e-17 1.0
  outer loop
    vertex 122.60000000000002 24.499999999999996 -0.9999999999999981
    vertex 16.5 21.5 -0.9999999999999999
    vertex 24.820000000000007 21.5 -0.9999999999999981
  endloop
endfacet
facet normal -1.274843081620524e-17 -1.9910215895663952e-17 1.0
  outer loop
    vertex 24.820000000000007 21.5 -0.9999999999999981
    vertex 16.5 21.5 -0.9999999999999999
    vertex 24.820000000000007 6.999999999999997 -0.9999999999999981
  endloop
endfacet
facet normal -1.274843081620524e-17 -1.9910215895663952e-17 1.0
  outer loop
    vertex 122.60000000000002 24.499999999999996 -0.9999999999999981
    vertex 24.820000000000007 21.5 -0.9999999999999981
    vertex 36.82000000000001 21.5 -0.9999999999999981
  endloop
endfacet
facet normal -1.274843081620524e-17 -1.9910215895663952e-17 1.0
  outer loop
    vertex 122.60000000000002 24.499999999999996 -0.9999999999999981
    vertex 36.82000000000001 21.5 -0.9999999999999981
    vertex 45.14 21.499999999999993 -0.9999999999999981
  endloop
endfacet
facet normal -1.274843081620524e-17 -1.9910215895663952e-17 1.0
  outer loop
    vertex 45.14 21.499999999999993 -0.9999999999999981
    vertex 36.82000000000001 21.5 -0.9999999999999981
    vertex 45.14 7.0 -0.9999999999999981
  endloop
endfacet
facet normal -1.274843081620524e-17 -1.9910215895663952e-17 1.0
  outer loop
    vertex 122.60000000000002 24.499999999999996 -0.9999999999999981
    vertex 45.14 21.499999999999993 -0.9999999999999981
    vertex 57.14 21.499999999999993 -0.9999999999999981
  endloop
endfacet
facet normal -1.274843081620524e-17 -1.9910215895663952e-17 1.0
  outer loop
    vertex 122.60000000000002 24.499999999999996 -0.9999999999999981
    vertex 57.14 21.499999999999993 -0.9999999999999981
    vertex 65.46 21.5 -0.9999999999999981
  endloop
endfacet
facet normal -1.274843081620524e-17 -1.9910215895663952e-17 1.0
  outer loop
    vertex 65.46 21.5 -0.9999999999999981
    vertex 57.14 21.499999999999993 -0.9999999999999981
    vertex 65.46 7.0 -0.9999999999999981
  endloop
endfacet
facet normal -1.274843081620524e-17 -1.9910215895663952e-17 1.0
  outer loop
    vertex 122.60000000000002 24.499999999999996 -0.9999999999999981
    vertex 65.46 21.5 -0.9999999999999981
    vertex 77.46000000000002 21.5 -0.9999999999999981
  endloop
endfacet
facet normal -1.274843081620524e-17 -1.9910215895663952e-17 1.0
  outer loop
    vertex 122.60000000000002 24.499999999999996 -0.9999999999999981
    vertex 77.46000000000002 21.5 -0.9999999999999981
    vertex 85.77999999999999 21.5 -0.9999999999999981
  endloop
endfacet
facet normal -1.274843081620524e-17 -1.9910215895663952e-17 1.0
  outer loop
    vertex 85.77999999999999 21.5 -0.9999999999999981
    vertex 77.46000000000002 21.5 -0.9999999999999981
    vertex 85.77999999999999 7.0 -0.9999999999999981
  endloop
endfacet
facet normal -1.274843081620524e-17 -1.9910215895663952e-17 1.0
  outer loop
    vertex 122.60000000000002 24.499999999999996 -0.9999999999999981
    vertex 85.77999999999999 21.5 -0.9999999999999981
    vertex 97.78000000000002 21.5 -0.9999999999999981
  endloop
endfacet
facet normal -1.274843081620524e-17 -1.9910215895663952e-17 1.0
  outer loop
    vertex 122.60000000000002 24.499999999999996 -0.9999999999999981
    vertex 97.78000000000002 21.5 -0.9999999999999981
    vertex 106.09999999999998 21.499999999999993 -0.9999999999999981
  endloop
endfacet
facet normal -1.274843081620524e-17 -1.9910215895663952e-17 1.0
  outer loop
    vertex 106.09999999999998 21.499999999999993 -0.9999999999999981
    vertex 97.78000000000002 21.5 -0.9999999999999981
    vertex 106.09999999999998 7.000000000000001 -0.9999999999999981
  endloop
endfacet
facet normal -1.274843081620524e-17 -1.9910215895663952e-17 1.0
  outer loop
    vertex 122.60000000000002 24.499999999999996 -0.9999999999999981
    vertex 106.09999999999998 21.499999999999993 -0.9999999999999981
    vertex 118.10000000000001 21.499999999999993 -0.9999999999999981
  endloop
endfacet
facet normal -1.274843081620524e-17 -1.9910215895663952e-17 1.0
  outer loop
    vertex 122.60000000000002 24.499999999999996 -0.9999999999999981
    vertex 118.10000000000001 21.499999999999993 -0.9999999999999981
    vertex 122.60000000000002 0.9999999999999996 -0.9999999999999981
  endloop
endfacet
facet normal 1.0 0.0 0.0
  outer loop
    vertex 103.09999999999997 7.000000000000001 -30.0
    vertex 103.09999999999997 4.95 -2.0000000000000018
    vertex 103.09999999999997 4.95 -30.0
  endloop
endfacet
facet normal 1.0 0.0 0.0
  outer loop
    vertex 103.09999999999997 4.95 -2.0000000000000018
    vertex 103.09999999999997 7.000000000000001 -30.0
    vertex 103.09999999999997 7.000000000000001 -2.0000000000000018
  endloop
endfacet
facet normal 1.0 -0.0 -0.0
  outer loop
    vertex 106.09999999999998 21.499999999999993 -2.0000000000000018
    vertex 106.09999999999998 7.000000000000001 -0.9999999999999981
    vertex 106.09999999999998 7.000000000000001 -2.0000000000000018
  endloop
endfacet
facet normal 1.0 -0.0 -0.0
  outer loop
    vertex 106.09999999999998 7.000000000000001 -0.9999999999999981
    vertex 106.09999999999998 21.499999999999993 -2.0000000000000018
    vertex 106.09999999999998 21.499999999999993 -0.9999999999999981
  endloop
endfacet
facet normal 1.0 -0.0 -0.0
  outer loop
    vertex 104.29999999999998 22.500000000000004 -30.0
    vertex 104.29999999999998 7.000000000000001 -2.0000000000000018
    vertex 104.29999999999998 7.000000000000001 -30.0
  endloop
endfacet
facet normal 1.0 -0.0 -0.0
  outer loop
    vertex 104.29999999999998 7.000000000000001 -2.0000000000000018
    vertex 104.29999999999998 22.500000000000004 -30.0
    vertex 104.29999999999998 22.500000000000004 -2.0000000000000018
  endloop
endfacet
facet normal -1.0 0.0 0.0
  outer loop
    vertex 119.9 4.95 -2.0000000000000018
    vertex 119.9 2.75 -30.0
    vertex 119.9 2.75 -2.0000000000000018
  endloop
endfacet
facet normal -1.0 0.0 0.0
  outer loop
    vertex 119.9 2.75 -30.0
    vertex 119.9 4.95 -2.0000000000000018
    vertex 119.9 4.95 -30.0
  endloop
endfacet
facet normal -0.0 1.0 -0.0
  outer loop
    vertex 106.09999999999998 7.000000000000001 -0.9999999999999981
    vertex 118.10000000000001 7.000000000000001 -2.0000000000000018
    vertex 106.09999999999998 7.000000000000001 -2.0000000000000018
  endloop
endfacet
facet normal -0.0 1.0 -0.0
  outer loop
    vertex 118.10000000000001 7.000000000000001 -2.0000000000000018
    vertex 106.09999999999998 7.000000000000001 -0.9999999999999981
    vertex 118.10000000000001 7.000000000000001 -0.9999999999999981
  endloop
endfacet
facet normal 0.0 -1.0 0.0
  outer loop
    vertex 118.10000000000001 21.499999999999993 -0.9999999999999981
    vertex 106.09999999999998 21.499999999999993 -2.0000000000000018
    vertex 118.10000000000001 21.499999999999993 -2.0000000000000018
  endloop
endfacet
facet normal 0.0 -1.0 0.0
  outer loop
    vertex 106.09999999999998 21.499999999999993 -2.0000000000000018
    vertex 118.10000000000001 21.499999999999993 -0.9999999999999981
    vertex 106.09999999999998 21.499999999999993 -0.9999999999999981
  endloop
endfacet
facet normal 0.0 -1.0 0.0
  outer loop
    vertex 104.29999999999998 7.000000000000001 -2.0000000000000018
    vertex 103.09999999999997 7.000000000000001 -30.0
    vertex 104.29999999999998 7.000000000000001 -30.0
  endloop
endfacet
facet normal 0.0 -1.0 0.0
  outer loop
    vertex 103.09999999999997 7.000000000000001 -30.0
    vertex 104.29999999999998 7.000000000000001 -2.0000000000000018
    vertex 103.09999999999997 7.000000000000001 -2.0000000000000018
  endloop
endfacet
facet normal 1.0 -0.0 -0.0
  outer loop
    vertex 104.29999999999998 4.95 -30.0
    vertex 104.29999999999998 2.75 -2.0000000000000018
    vertex 104.29999999999998 2.75 -30.0
  endloop
endfacet
facet normal 1.0 -0.0 -0.0
  outer loop
    vertex 104.29999999999998 2.75 -2.0000000000000018
    vertex 104.29999999999998 4.95 -30.0
    vertex 104.29999999999998 4.95 -2.0000000000000018
  endloop
endfacet
facet normal 0.0 -1.0 0.0
  outer loop
    vertex 119.9 22.500000000000004 -2.0000000000000018
    vertex 104.29999999999998 22.500000000000004 -30.0
    vertex 119.9 22.500000000000004 -30.0
  endloop
endfacet
facet normal 0.0 -1.0 0.0
  outer loop
    vertex 104.29999999999998 22.500000000000004 -30.0
    vertex 119.9 22.500000000000004 -2.0000000000000018
    vertex 104.29999999999998 22.500000000000004 -2.0000000000000018
  endloop
endfacet
facet normal -1.0 0.0 0.0
  outer loop
    vertex 121.10000000000001 7.000000000000001 -2.0000000000000018
    vertex 121.10000000000001 4.95 -30.0
    vertex 121.10000000000001 4.95 -2.0000000000000018
  endloop
endfacet
facet normal -1.0 0.0 0.0
  outer loop
    vertex 121.10000000000001 4.95 -30.0
    vertex 121.10000000000001 7.000000000000001 -2.0000000000000018
    vertex 121.10000000000001 7.000000000000001 -30.0
  endloop
endfacet
facet normal -1.0 0.0 0.0
  outer loop
    vertex 118.10000000000001 21.499999999999993 -0.9999999999999981
    vertex 118.10000000000001 7.000000000000001 -2.0000000000000018
    vertex 118.10000000000001 7.000000000000001 -0.9999999999999981
  endloop
endfacet
facet normal -1.0 0.0 0.0
  outer loop
    vertex 118.10000000000001 7.000000000000001 -2.0000000000000018
    vertex 118.10000000000001 21.499999999999993 -0.9999999999999981
    vertex 118.10000000000001 21.499999999999993 -2.0000000000000018
  endloop
endfacet
facet normal 0.0 0.0 -1.0
  outer loop
    vertex 104.29999999999998 22.500000000000004 -2.0000000000000018
    vertex 106.09999999999998 21.499999999999993 -2.0000000000000018
    vertex 104.29999999999998 7.000000000000001 -2.0000000000000018
  endloop
endfacet
facet normal 0.0 0.0 -1.0
  outer loop
    vertex 106.09999999999998 21.499999999999993 -2.0000000000000018
    vertex 104.29999999999998 22.500000000000004 -2.0000000000000018
    vertex 119.9 22.500000000000004 -2.0000000000000018
  endloop
endfacet
facet normal 0.0 0.0 -1.0
  outer loop
    vertex 104.29999999999998 7.000000000000001 -2.0000000000000018
    vertex 106.09999999999998 21.499999999999993 -2.0000000000000018
    vertex 104.29999999999998 4.95 -2.0000000000000018
  endloop
endfacet
facet normal 0.0 0.0 -1.0
  outer loop
    vertex 104.29999999999998 4.95 -2.0000000000000018
    vertex 106.09999999999998 21.499999999999993 -2.0000000000000018
    vertex 104.29999999999998 2.75 -2.0000000000000018
  endloop
endfacet
facet normal 0.0 0.0 -1.0
  outer loop
    vertex 106.09999999999998 21.499999999999993 -2.0000000000000018
    vertex 119.9 22.500000000000004 -2.0000000000000018
    vertex 118.10000000000001 21.499999999999993 -2.0000000000000018
  endloop
endfacet
facet normal 0.0 0.0 -1.0
  outer loop
    vertex 118.10000000000001 21.499999999999993 -2.0000000000000018
    vertex 119.9 22.500000000000004 -2.0000000000000018
    vertex 118.10000000000001 7.000000000000001 -2.0000000000000018
  endloop
endfacet
facet normal 0.0 0.0 -1.0
  outer loop
    vertex 121.10000000000001 7.000000000000001 -2.0000000000000018
    vertex 119.9 4.95 -2.0000000000000018
    vertex 119.9 7.000000000000001 -2.0000000000000018
  endloop
endfacet
facet normal 0.0 0.0 -1.0
  outer loop
    vertex 119.9 4.95 -2.0000000000000018
    vertex 121.10000000000001 7.000000000000001 -2.0000000000000018
    vertex 121.10000000000001 4.95 -2.0000000000000018
  endloop
endfacet
facet normal 0.0 0.0 -1.0
  outer loop
    vertex 104.29999999999998 2.75 -2.0000000000000018
    vertex 106.09999999999998 7.000000000000001 -2.0000000000000018
    vertex 119.9 2.75 -2.0000000000000018
  endloop
endfacet
facet normal 0.0 0.0 -1.0
  outer loop
    vertex 106.09999999999998 7.000000000000001 -2.0000000000000018
    vertex 104.29999999999998 2.75 -2.0000000000000018
    vertex 106.09999999999998 21.499999999999993 -2.0000000000000018
  endloop
endfacet
facet normal 0.0 0.0 -1.0
  outer loop
    vertex 119.9 2.75 -2.0000000000000018
    vertex 106.09999999999998 7.000000000000001 -2.0000000000000018
    vertex 118.10000000000001 7.000000000000001 -2.0000000000000018
  endloop
endfacet
facet normal 0.0 0.0 -1.0
  outer loop
    vertex 119.9 2.75 -2.0000000000000018
    vertex 118.10000000000001 7.000000000000001 -2.0000000000000018
    vertex 119.9 22.500000000000004 -2.0000000000000018
  endloop
endfacet
facet normal 0.0 0.0 -1.0
  outer loop
    vertex 119.9 2.75 -2.0000000000000018
    vertex 119.9 22.500000000000004 -2.0000000000000018
    vertex 119.9 7.000000000000001 -2.0000000000000018
  endloop
endfacet
facet normal 0.0 0.0 -1.0
  outer loop
    vertex 119.9 2.75 -2.0000000000000018
    vertex 119.9 7.000000000000001 -2.0000000000000018
    vertex 119.9 4.95 -2.0000000000000018
  endloop
endfacet
facet normal 0.0 0.0 -1.0
  outer loop
    vertex 104.29999999999998 7.000000000000001 -2.0000000000000018
    vertex 103.09999999999997 4.95 -2.0000000000000018
    vertex 103.09999999999997 7.000000000000001 -2.0000000000000018
  endloop
endfacet
facet normal 0.0 0.0 -1.0
  outer loop
    vertex 103.09999999999997 4.95 -2.0000000000000018
    vertex 104.29999999999998 7.000000000000001 -2.0000000000000018
    vertex 104.29999999999998 4.95 -2.0000000000000018
  endloop
endfacet
facet normal 0.0 1.0 0.0
  outer loop
    vertex 103.09999999999997 4.95 -2.0000000000000018
    vertex 104.29999999999998 4.95 -30.0
    vertex 103.09999999999997 4.95 -30.0
  endloop
endfacet
facet normal 0.0 1.0 0.0
  outer loop
    vertex 104.29999999999998 4.95 -30.0
    vertex 103.09999999999997 4.95 -2.0000000000000018
    vertex 104.29999999999998 4.95 -2.0000000000000018
  endloop
endfacet
facet normal 0.0 0.0 -1.0
  outer loop
    vertex 119.9 2.75 -2.0000000000000018
    vertex 104.29999999999998 1.9999999999999998 -2.0000000000000018
    vertex 104.29999999999998 2.75 -2.0000000000000018
  endloop
endfacet
facet normal 0.0 0.0 -1.0
  outer loop
    vertex 104.29999999999998 1.9999999999999998 -2.0000000000000018
    vertex 119.9 2.75 -2.0000000000000018
    vertex 119.9 1.9999999999999998 -2.0000000000000018
  endloop
endfacet
facet normal 0.0 1.0 0.0
  outer loop
    vertex 119.9 4.95 -2.0000000000000018
    vertex 121.10000000000001 4.95 -30.0
    vertex 119.9 4.95 -30.0
  endloop
endfacet
facet normal 0.0 1.0 0.0
  outer loop
    vertex 121.10000000000001 4.95 -30.0
    vertex 119.9 4.95 -2.0000000000000018
    vertex 121.10000000000001 4.95 -2.0000000000000018
  endloop
endfacet
facet normal 1.0 -0.0 -0.0
  outer loop
    vertex 122.60000000000002 24.499999999999996 -30.0
    vertex 122.60000000000002 0.9999999999999996 -0.9999999999999981
    vertex 122.60000000000002 0.9999999999999996 -30.0
  endloop
endfacet
facet normal 1.0 -0.0 -0.0
  outer loop
    vertex 122.60000000000002 0.9999999999999996 -0.9999999999999981
    vertex 122.60000000000002 24.499999999999996 -30.0
    vertex 122.60000000000002 24.499999999999996 -0.9999999999999981
  endloop
endfacet
facet normal 0.0 -1.0 0.0
  outer loop
    vertex 121.10000000000001 7.000000000000001 -2.0000000000000018
    vertex 119.9 7.000000000000001 -30.0
    vertex 121.10000000000001 7.000000000000001 -30.0
  endloop
endfacet
facet normal 0.0 -1.0 0.0
  outer loop
    vertex 119.9 7.000000000000001 -30.0
    vertex 121.10000000000001 7.000000000000001 -2.0000000000000018
    vertex 119.9 7.000000000000001 -2.0000000000000018
  endloop
endfacet
facet normal -0.0 1.0 -0.0
  outer loop
    vertex 104.29999999999998 2.75 -2.0000000000000018
    vertex 119.9 2.75 -30.0
    vertex 104.29999999999998 2.75 -30.0
  endloop
endfacet
facet normal -0.0 1.0 -0.0
  outer loop
    vertex 119.9 2.75 -30.0
    vertex 104.29999999999998 2.75 -2.0000000000000018
    vertex 119.9 2.75 -2.0000000000000018
  endloop
endfacet
endsolid RSmoduleHolder_v2
